<svg xmlns="http://www.w3.org/2000/svg" viewBox="0 0 500 500"><g id="freepik--background-complete--inject-3"><rect x="416.78" y="398.49" width="33.12" height="0.25" style="fill:#ebebeb"></rect><rect x="322.53" y="401.21" width="8.69" height="0.25" style="fill:#ebebeb"></rect><rect x="396.59" y="389.21" width="19.19" height="0.25" style="fill:#ebebeb"></rect><rect x="52.46" y="390.89" width="43.19" height="0.25" style="fill:#ebebeb"></rect><rect x="104.56" y="390.89" width="6.33" height="0.25" style="fill:#ebebeb"></rect><rect x="131.47" y="395.11" width="93.68" height="0.25" style="fill:#ebebeb"></rect><path d="M238.4,337.8H45.3a5.71,5.71,0,0,1-5.71-5.71V60.66A5.71,5.71,0,0,1,45.3,55H238.4a5.71,5.71,0,0,1,5.71,5.71V332.09A5.71,5.71,0,0,1,238.4,337.8ZM45.3,55.2a5.47,5.47,0,0,0-5.46,5.46V332.09a5.47,5.47,0,0,0,5.46,5.46H238.4a5.47,5.47,0,0,0,5.46-5.46V60.66a5.47,5.47,0,0,0-5.46-5.46Z" style="fill:#ebebeb"></path><path d="M454.7,337.8H261.6a5.71,5.71,0,0,1-5.71-5.71V60.66A5.71,5.71,0,0,1,261.6,55H454.7a5.71,5.71,0,0,1,5.71,5.71V332.09A5.71,5.71,0,0,1,454.7,337.8ZM261.6,55.2a5.47,5.47,0,0,0-5.46,5.46V332.09a5.47,5.47,0,0,0,5.46,5.46H454.7a5.47,5.47,0,0,0,5.46-5.46V60.66a5.47,5.47,0,0,0-5.46-5.46Z" style="fill:#ebebeb"></path><rect y="382.4" width="500" height="0.25" style="fill:#ebebeb"></rect><path d="M418.6,287.55c-1.92,1.92-2.82,10.49-2.82,10.49s-.91-8.57-2.83-10.49-10.48-2.82-10.48-2.82,8.56-.9,10.48-2.82,2.83-10.49,2.83-10.49.9,8.57,2.82,10.49,10.49,2.82,10.49,2.82S420.52,285.63,418.6,287.55Z" style="fill:#f5f5f5"></path><path d="M432.7,330.77c-3,3-4.36,16.2-4.36,16.2s-1.4-13.23-4.36-16.2-16.21-4.37-16.21-4.37S421,325,424,322s4.36-16.21,4.36-16.21,1.4,13.24,4.36,16.21,16.21,4.36,16.21,4.36S435.67,327.8,432.7,330.77Z" style="fill:#f0f0f0"></path><path d="M401,342.69c-1.28,1.28-1.89,7-1.89,7s-.6-5.73-1.88-7-7-1.89-7-1.89,5.73-.6,7-1.89,1.88-7,1.88-7,.61,5.73,1.89,7,7,1.89,7,1.89S402.24,341.4,401,342.69Z" style="fill:#ebebeb"></path><path d="M111.69,110.77c3.6,3.6,19.69,5.3,19.69,5.3s-16.09,1.7-19.69,5.3-5.31,19.7-5.31,19.7-1.7-16.09-5.3-19.7-19.7-5.3-19.7-5.3,16.09-1.7,19.7-5.3,5.3-19.7,5.3-19.7S108.08,107.16,111.69,110.77Z" style="fill:#f5f5f5"></path><path d="M138.27,88.42c1.8,1.8,9.85,2.65,9.85,2.65s-8.05.85-9.85,2.65-2.65,9.85-2.65,9.85-.85-8-2.65-9.85-9.85-2.65-9.85-2.65,8-.85,9.85-2.65,2.65-9.85,2.65-9.85S136.47,86.61,138.27,88.42Z" style="fill:#f0f0f0"></path><path d="M172.13,125c1.29,1.28,7,1.89,7,1.89s-5.72.6-7,1.89-1.89,7-1.89,7-.6-5.73-1.89-7-7-1.89-7-1.89,5.73-.61,7-1.89,1.89-7,1.89-7S170.85,123.73,172.13,125Z" style="fill:#ebebeb"></path><path d="M338.86,86.82C336.94,88.74,336,97.31,336,97.31s-.9-8.57-2.82-10.49S322.73,84,322.73,84s8.57-.91,10.49-2.83S336,70.69,336,70.69s.9,8.57,2.82,10.48S349.35,84,349.35,84,340.78,84.9,338.86,86.82Z" style="fill:#f5f5f5"></path><path d="M194.86,80.07a8.06,8.06,0,1,0,8.06,8.06A8.05,8.05,0,0,0,194.86,80.07Zm0,6c-2.45,0-4.44,2.51-4.44.06a4.45,4.45,0,1,1,8.89,0C199.31,88.58,197.32,86.07,194.86,86.07Z" style="fill:#f5f5f5"></path><path d="M201.44,83.49a7,7,0,0,1,.52,2.64,7.1,7.1,0,1,1-14.19,0,7,7,0,0,1,.51-2.64,8.06,8.06,0,1,0,13.16,0Z" style="fill:#f0f0f0"></path><path d="M197.57,102.2A10.77,10.77,0,1,0,208.33,113,10.76,10.76,0,0,0,197.57,102.2Zm0,8c-3.28,0-5.93,3.35-5.93.07a5.93,5.93,0,0,1,11.86,0C203.5,113.57,200.85,110.22,197.57,110.22Z" style="fill:#fafafa"></path><path d="M206.36,106.77a9.48,9.48,0,1,1-17.58,0,10.76,10.76,0,1,0,17.58,0Z" style="fill:#f5f5f5"></path><path d="M209.11,92.6a4.61,4.61,0,1,0,0,6.52A4.61,4.61,0,0,0,209.11,92.6ZM206.68,95c-1-1-2.81-.78-1.82-1.78a2.54,2.54,0,0,1,3.59,3.6C207.46,97.84,207.67,96,206.68,95Z" style="fill:#f5f5f5"></path><path d="M210.39,96.65a4.06,4.06,0,0,1-6.61,1.28,4.06,4.06,0,0,1,0-5.75,4.12,4.12,0,0,1,1.28-.86,4.61,4.61,0,0,0-2.47,7.8,4.61,4.61,0,0,0,7.8-2.47Z" style="fill:#f0f0f0"></path><path d="M97.34,346.16A9.3,9.3,0,1,0,84.2,346,9.3,9.3,0,0,0,97.34,346.16Zm-4.85-4.94c2-2,1.63-5.66,3.61-3.64a5.12,5.12,0,1,1-7.31,7.18C86.81,342.74,90.47,343.2,92.49,341.22Z" style="fill:#f5f5f5"></path><path d="M89.16,348.66A8.18,8.18,0,1,1,100,338a9.29,9.29,0,1,0-15.8,8A9.17,9.17,0,0,0,89.16,348.66Z" style="fill:#f0f0f0"></path><path d="M83.43,314.7a12.42,12.42,0,1,0-17.56-.17A12.42,12.42,0,0,0,83.43,314.7ZM77,308.1c2.7-2.65,2.18-7.56,4.83-4.86A6.85,6.85,0,1,1,72,312.83C69.36,310.13,74.26,310.75,77,308.1Z" style="fill:#fafafa"></path><path d="M72.5,318a10.94,10.94,0,1,1,12.19-17.68A11.08,11.08,0,0,1,87,303.83,12.42,12.42,0,1,0,72.5,318Z" style="fill:#f5f5f5"></path><path d="M437.79,181a12.42,12.42,0,1,0-17.56-.17A12.43,12.43,0,0,0,437.79,181Zm-6.48-6.6c2.7-2.65,2.18-7.56,4.82-4.86a6.85,6.85,0,0,1-9.77,9.59C423.71,176.39,428.61,177,431.31,174.36Z" style="fill:#fafafa"></path><path d="M426.86,184.3a10.93,10.93,0,1,1,14.48-14.21,12.42,12.42,0,1,0-14.48,14.21Z" style="fill:#f5f5f5"></path><path d="M302,123.06a17.46,17.46,0,1,0-24.69-.23A17.46,17.46,0,0,0,302,123.06Zm-9.1-9.28c3.79-3.72,3.05-10.62,6.78-6.83a9.63,9.63,0,0,1-13.74,13.49C282.17,116.64,289.06,117.51,292.86,113.78Z" style="fill:#fafafa"></path><path d="M286.6,127.77a15.38,15.38,0,1,1,20.35-20,17.46,17.46,0,1,0-20.35,20Z" style="fill:#f5f5f5"></path><path d="M429,199.91a5.32,5.32,0,1,0-5.27-5.37A5.31,5.31,0,0,0,429,199.91Zm0-4c1.62,0,2.95-1.63,2.93,0a2.93,2.93,0,1,1-5.86-.05C426.07,194.27,427.37,195.94,429,196Z" style="fill:#f5f5f5"></path><path d="M424.63,197.62a4.91,4.91,0,0,1-.33-1.76,4.69,4.69,0,0,1,9.38.09,4.84,4.84,0,0,1-.36,1.75,5.32,5.32,0,1,0-8.69-.08Z" style="fill:#f0f0f0"></path><path d="M196.94,347.5c3.6,3.6,19.69,5.3,19.69,5.3s-16.09,1.7-19.69,5.3-5.31,19.7-5.31,19.7-1.69-16.09-5.3-19.7-19.7-5.3-19.7-5.3,16.1-1.7,19.7-5.3,5.3-19.7,5.3-19.7S193.33,343.89,196.94,347.5Z" style="fill:#f5f5f5"></path><path d="M366,117.05c-1.8,1.8-2.65,9.85-2.65,9.85s-.85-8.05-2.65-9.85-9.85-2.65-9.85-2.65,8-.85,9.85-2.65,2.65-9.85,2.65-9.85.85,8,2.65,9.85,9.85,2.65,9.85,2.65S367.77,115.25,366,117.05Z" style="fill:#f0f0f0"></path></g><g id="freepik--Shadow--inject-3"><ellipse id="freepik--path--inject-3" cx="250" cy="412.39" rx="193.89" ry="11.32" style="fill:#f5f5f5"></ellipse></g><g id="freepik--Toothpaste--inject-3"><rect x="120.21" y="350.95" width="33.9" height="7.2" transform="translate(-36.31 16.28) rotate(-6)" style="fill:#407BFF"></rect><rect x="120.49" y="355.91" width="36" height="22.58" transform="translate(-37.62 16.49) rotate(-6)" style="fill:#407BFF"></rect><rect x="120.49" y="355.91" width="36" height="22.58" transform="translate(-37.62 16.49) rotate(-6)" style="fill:#fff;opacity:0.5"></rect><g style="opacity:0.4"><path d="M135.32,361.11a.9.9,0,0,0-.8,1l1.75,16.68,1.79-.19-1.75-16.68A.91.91,0,0,0,135.32,361.11Z" style="fill:#fff"></path><path d="M141.36,360.48a.9.9,0,0,0-.8,1l1.75,16.68,1.79-.19-1.75-16.68A.89.89,0,0,0,141.36,360.48Z" style="fill:#fff"></path><path d="M129.28,361.75a.89.89,0,0,0-.8,1l1.75,16.68,1.79-.19-1.75-16.68A.9.9,0,0,0,129.28,361.75Z" style="fill:#fff"></path><path d="M147.4,359.84a.91.91,0,0,0-.8,1l1.75,16.68,1.79-.19-1.75-16.68A.9.9,0,0,0,147.4,359.84Z" style="fill:#fff"></path><path d="M153.44,359.21a.9.9,0,0,0-.8,1l1.76,16.68,1.79-.19L154.43,360A.89.89,0,0,0,153.44,359.21Z" style="fill:#fff"></path><path d="M126,379.86l-1.76-16.68a.9.9,0,0,0-1-.8.91.91,0,0,0-.81,1l1.76,16.68Z" style="fill:#fff"></path></g><path d="M74.73,164.71l1.21,11.52L112.79,349a8.15,8.15,0,0,0,8.81,6.4l31-3.26a8.12,8.12,0,0,0,7.28-8.09L160,167.4l-1.22-11.53Z" style="fill:#407BFF"></path><path d="M74.73,164.71l1.21,11.52L112.79,349a8.15,8.15,0,0,0,8.81,6.4l31-3.26a8.12,8.12,0,0,0,7.28-8.09L160,167.4l-1.22-11.53Z" style="fill:#fff;opacity:0.8"></path><rect x="74.99" y="160.26" width="84.48" height="9.42" transform="translate(-16.6 13.16) rotate(-6)" style="fill:#fff;opacity:0.2"></rect><path d="M85.55,173l.23,2.12L119.3,346.31c.79,4,4,6.82,7.44,6.46l25.73-2.7c3.44-.37,6-3.76,5.94-7.87l-2.82-174.47-.22-2.12Z" style="fill:#fff;opacity:0.6000000000000001"></path><g style="opacity:0.5"><path d="M126.7,166.22a.9.9,0,0,0,.8-1l-.63-6-1.79.18.63,6A.91.91,0,0,0,126.7,166.22Z" style="fill:#fff"></path><path d="M132.74,165.58a.89.89,0,0,0,.8-1l-.63-6-1.79.19.63,6A.91.91,0,0,0,132.74,165.58Z" style="fill:#fff"></path><path d="M120.66,166.85a.9.9,0,0,0,.8-1l-.63-6-1.79.19.63,6A.91.91,0,0,0,120.66,166.85Z" style="fill:#fff"></path><path d="M138.78,165a.91.91,0,0,0,.81-1l-.64-6-1.79.18.64,6A.9.9,0,0,0,138.78,165Z" style="fill:#fff"></path><path d="M114.62,167.49a.91.91,0,0,0,.8-1l-.63-6-1.79.18.63,6A.9.9,0,0,0,114.62,167.49Z" style="fill:#fff"></path><path d="M150.87,163.68a.91.91,0,0,0,.8-1l-.63-6-1.79.18.63,6A.9.9,0,0,0,150.87,163.68Z" style="fill:#fff"></path><path d="M144.83,164.31a.9.9,0,0,0,.8-1l-.63-6-1.79.19.63,6A.9.9,0,0,0,144.83,164.31Z" style="fill:#fff"></path><path d="M108.58,168.12a.9.9,0,0,0,.8-1l-.63-6-1.79.19.63,6A.9.9,0,0,0,108.58,168.12Z" style="fill:#fff"></path><path d="M78.37,171.3a.91.91,0,0,0,.8-1l-.63-6-1.79.18.63,6A.9.9,0,0,0,78.37,171.3Z" style="fill:#fff"></path><path d="M84.41,170.66a.9.9,0,0,0,.8-1l-.63-6-1.79.19.63,6A.9.9,0,0,0,84.41,170.66Z" style="fill:#fff"></path><path d="M102.53,168.76a.91.91,0,0,0,.81-1l-.64-6-1.79.18.64,6A.9.9,0,0,0,102.53,168.76Z" style="fill:#fff"></path><path d="M155.29,156.24l.63,6a.9.9,0,1,0,1.79-.19l-.63-6Z" style="fill:#fff"></path><path d="M90.45,170a.9.9,0,0,0,.8-1l-.63-6-1.79.18.63,6A.91.91,0,0,0,90.45,170Z" style="fill:#fff"></path><path d="M96.49,169.39a.89.89,0,0,0,.8-1l-.63-6-1.79.19.63,6A.91.91,0,0,0,96.49,169.39Z" style="fill:#fff"></path></g><path d="M159.87,318.33l0-57.4c-14.62-18-59.39-30.9-76.24-48.48L97.6,277.8C111.81,292.41,149.94,303,159.87,318.33Z" style="fill:#407BFF"></path><path d="M127.75,270.9s1.94-.16,2.93,4.61,1,8.28,2.51,8.33,4.61-5,4.23-9.46-.58-8.56,0-11.33c.7-3.22,2.82-8.65-1.23-11.66-3.54-2.64-7.28,1.27-10.35,1.59l-.21,0c-3.07.32-7.54-2.72-10.46.6-3.33,3.78-.13,8.66,1.23,11.66,1.17,2.59,1.84,6.64,2.38,11.07s4.68,8.73,6.11,8.38.74-3.79.72-8.67,1.9-5.12,1.9-5.12Z" style="fill:#fff"></path><path d="M154.37,260.13c-.65-2.12-6.42-2.36-14.52-1-.13.71-.28,1.39-.44,2,3.08-.21,5.12.15,5.43,1.14.65,2.11-6.72,6.28-16.47,9.31s-18.19,3.77-18.85,1.66c-.39-1.27,2.12-3.29,6.31-5.35-.16-.57-.34-1.1-.53-1.59-9.45,3.9-15.64,8.1-14.88,10.53,1,3.23,13.89,2.09,28.79-2.54S155.38,263.35,154.37,260.13Z" style="fill:#407BFF"></path><path d="M154.37,260.13c-.65-2.12-6.42-2.36-14.52-1-.13.71-.28,1.39-.44,2,3.08-.21,5.12.15,5.43,1.14.65,2.11-6.72,6.28-16.47,9.31s-18.19,3.77-18.85,1.66c-.39-1.27,2.12-3.29,6.31-5.35-.16-.57-.34-1.1-.53-1.59-9.45,3.9-15.64,8.1-14.88,10.53,1,3.23,13.89,2.09,28.79-2.54S155.38,263.35,154.37,260.13Z" style="fill:#fff;opacity:0.6000000000000001"></path></g><g id="freepik--speech-bubble--inject-3"><path d="M364.56,133.69,362.27,127a18.67,18.67,0,1,0-7.3,7.59l6.53,2.22A2.41,2.41,0,0,0,364.56,133.69Z" style="fill:#407BFF"></path><path d="M364.56,133.69,362.27,127a18.67,18.67,0,1,0-7.3,7.59l6.53,2.22A2.41,2.41,0,0,0,364.56,133.69Z" style="fill:#fff;opacity:0.6000000000000001"></path><path d="M346,122s1.41,0,1.76,3.54.12,6,1.18,6.19,3.7-3.26,3.76-6.49a30.73,30.73,0,0,1,.88-8.16c.75-2.26,2.69-6,0-8.49-2.35-2.17-5.34.36-7.58.36h-.15c-2.24,0-5.23-2.53-7.58-.36-2.69,2.47-.75,6.23,0,8.49a30.73,30.73,0,0,1,.88,8.16c.06,3.23,2.71,6.64,3.76,6.49s.83-2.67,1.18-6.19,1.76-3.54,1.76-3.54Z" style="fill:#fff"></path><g style="opacity:0.9"><polygon points="353.08 125.23 343.88 116.03 346.62 113.29 353.08 119.75 364.8 108.03 367.53 110.77 353.08 125.23" style="fill:#407BFF"></polygon></g></g><g id="freepik--Shield--inject-3"><path d="M343.84,178.92a212.5,212.5,0,0,1-26.65-4.62A202.73,202.73,0,0,1,250,144.75a202.73,202.73,0,0,1-67.19,29.55,212.5,212.5,0,0,1-26.65,4.62c0,.42,0,.82,0,1.24,0,82.51,37,140.07,93.88,185.09,56.86-45,93.88-102.58,93.88-185.09C343.88,179.74,343.84,179.34,343.84,178.92Z" style="fill:#407BFF"></path><path d="M332.14,189.1l-.17,3.43c-3,62.32-28.22,111.77-79.45,155.61L250,350.3l-2.52-2.16C196.24,304.29,171,254.84,168,192.53l-.17-3.42,3.38-.58c4.83-.83,9.64-1.82,14.29-2.94A215.32,215.32,0,0,0,248,159.91l2-1.24,2,1.24a215.32,215.32,0,0,0,62.44,25.68c4.68,1.13,9.49,2.11,14.29,2.94Z" style="fill:#407BFF"></path><path d="M317.19,174.3A202.73,202.73,0,0,1,250,144.75h0v13.92h0l2,1.24a215.32,215.32,0,0,0,62.44,25.68c4.68,1.13,9.49,2.11,14.29,2.94l3.38.57-.16,3.43c-3,62.32-28.23,111.77-79.46,155.61L250,350.3h0v14.95h0c56.86-45,93.88-102.58,93.88-185.09,0-.42,0-.82,0-1.24A212.5,212.5,0,0,1,317.19,174.3Z" style="fill:#fff;opacity:0.5"></path><path d="M332.14,189.1l-.17,3.43c-3,62.32-28.22,111.77-79.45,155.61L250,350.3l-2.52-2.16C196.24,304.29,171,254.84,168,192.53l-.17-3.42,3.38-.58c4.83-.83,9.64-1.82,14.29-2.94A215.32,215.32,0,0,0,248,159.91l2-1.24,2,1.24a215.32,215.32,0,0,0,62.44,25.68c4.68,1.13,9.49,2.11,14.29,2.94Z" style="fill:#fff;opacity:0.30000000000000004"></path></g><g id="freepik--Foam--inject-3"><path d="M249.67,161.81a6.28,6.28,0,0,0-2.41.48,3.87,3.87,0,0,0,0-.48,6.32,6.32,0,0,0-4.72-6.11,6.33,6.33,0,0,0-4.55-9.17A7.08,7.08,0,0,0,228,144a15.3,15.3,0,0,0-23.77,4.65,6.9,6.9,0,0,0-1.65-.2,7.06,7.06,0,0,0-6,3.42,6.33,6.33,0,0,0-10.12,7.39,7.05,7.05,0,0,0-4.68,2.7,6.34,6.34,0,1,0-.55,7.82,7.06,7.06,0,0,0,11.65,1,7.06,7.06,0,0,0,11.16-.21,11.67,11.67,0,0,0,14.91.29c.52,0,1-.1,1.54-.18a11.66,11.66,0,0,0,13.29,1.19,6.32,6.32,0,0,0,10.58-.34,6.33,6.33,0,1,0,5.4-9.63Z" style="fill:#407BFF"></path><path d="M249.67,161.81a6.28,6.28,0,0,0-2.41.48,3.87,3.87,0,0,0,0-.48,6.32,6.32,0,0,0-4.72-6.11,6.33,6.33,0,0,0-4.55-9.17A7.08,7.08,0,0,0,228,144a15.3,15.3,0,0,0-23.77,4.65,6.9,6.9,0,0,0-1.65-.2,7.06,7.06,0,0,0-6,3.42,6.33,6.33,0,0,0-10.12,7.39,7.05,7.05,0,0,0-4.68,2.7,6.34,6.34,0,1,0-.55,7.82,7.06,7.06,0,0,0,11.65,1,7.06,7.06,0,0,0,11.16-.21,11.67,11.67,0,0,0,14.91.29c.52,0,1-.1,1.54-.18a11.66,11.66,0,0,0,13.29,1.19,6.32,6.32,0,0,0,10.58-.34,6.33,6.33,0,1,0,5.4-9.63Z" style="fill:#fff;opacity:0.9"></path><path d="M243,172.23a6.84,6.84,0,0,1-5.59-2.91A12.63,12.63,0,0,1,223,168c-.54.09-1.1.15-1.66.19a12.61,12.61,0,0,1-16.08-.32,7.63,7.63,0,0,1-12,.24,7.63,7.63,0,0,1-12.56-1,6.81,6.81,0,0,1-10.46-.43,6.33,6.33,0,0,0,10.9,3,7.06,7.06,0,0,0,11.65,1,7.06,7.06,0,0,0,11.16-.21,11.67,11.67,0,0,0,14.91.29c.52,0,1-.1,1.54-.18a11.66,11.66,0,0,0,13.29,1.19,6.3,6.3,0,0,0,10.05.39A6.83,6.83,0,0,1,243,172.23Z" style="fill:#407BFF"></path><path d="M248.76,169a6.85,6.85,0,0,1-4.1,3,6.31,6.31,0,0,0,9.85.22A6.84,6.84,0,0,1,248.76,169Z" style="fill:#407BFF"></path><g style="opacity:0.7000000000000001"><path d="M243,172.23a6.84,6.84,0,0,1-5.59-2.91A12.63,12.63,0,0,1,223,168c-.54.09-1.1.15-1.66.19a12.61,12.61,0,0,1-16.08-.32,7.63,7.63,0,0,1-12,.24,7.63,7.63,0,0,1-12.56-1,6.81,6.81,0,0,1-10.46-.43,6.33,6.33,0,0,0,10.9,3,7.06,7.06,0,0,0,11.65,1,7.06,7.06,0,0,0,11.16-.21,11.67,11.67,0,0,0,14.91.29c.52,0,1-.1,1.54-.18a11.66,11.66,0,0,0,13.29,1.19,6.3,6.3,0,0,0,10.05.39A6.83,6.83,0,0,1,243,172.23Z" style="fill:#fff"></path><path d="M248.76,169a6.85,6.85,0,0,1-4.1,3,6.31,6.31,0,0,0,9.85.22A6.84,6.84,0,0,1,248.76,169Z" style="fill:#fff"></path></g><path d="M277.72,167.73a5,5,0,0,1,1.9.38c0-.12,0-.25,0-.38a5,5,0,0,1,3.73-4.83,5,5,0,0,1,3.59-7.25,5.61,5.61,0,0,1,8-2,12.11,12.11,0,0,1,18.8,3.68,5.51,5.51,0,0,1,1.3-.16,5.57,5.57,0,0,1,4.78,2.7,5,5,0,0,1,8,5.85,5.64,5.64,0,0,1,3.71,2.13,5,5,0,1,1,.43,6.19,5.59,5.59,0,0,1-9.21.75,5.59,5.59,0,0,1-8.83-.17,9.21,9.21,0,0,1-11.79.23,9.9,9.9,0,0,1-1.22-.14,9.21,9.21,0,0,1-10.51.94,5,5,0,0,1-8.36-.26,5,5,0,1,1-4.26-7.62Z" style="fill:#407BFF"></path><path d="M277.72,167.73a5,5,0,0,1,1.9.38c0-.12,0-.25,0-.38a5,5,0,0,1,3.73-4.83,5,5,0,0,1,3.59-7.25,5.61,5.61,0,0,1,8-2,12.11,12.11,0,0,1,18.8,3.68,5.51,5.51,0,0,1,1.3-.16,5.57,5.57,0,0,1,4.78,2.7,5,5,0,0,1,8,5.85,5.64,5.64,0,0,1,3.71,2.13,5,5,0,1,1,.43,6.19,5.59,5.59,0,0,1-9.21.75,5.59,5.59,0,0,1-8.83-.17,9.21,9.21,0,0,1-11.79.23,9.9,9.9,0,0,1-1.22-.14,9.21,9.21,0,0,1-10.51.94,5,5,0,0,1-8.36-.26,5,5,0,1,1-4.26-7.62Z" style="fill:#fff;opacity:0.9"></path><path d="M283,176a5.39,5.39,0,0,0,4.42-2.3,9.93,9.93,0,0,0,11.32-1,9.7,9.7,0,0,0,1.32.15,9.94,9.94,0,0,0,12.71-.24,6,6,0,0,0,9.51.18,6,6,0,0,0,9.94-.82,5.36,5.36,0,0,0,8.26-.34A5,5,0,0,1,331.9,174a5.59,5.59,0,0,1-9.21.75,5.59,5.59,0,0,1-8.83-.17,9.21,9.21,0,0,1-11.79.23,9.9,9.9,0,0,1-1.22-.14,9.21,9.21,0,0,1-10.51.94,5,5,0,0,1-7.94.32C282.61,176,282.82,176,283,176Z" style="fill:#407BFF"></path><path d="M278.43,173.38a5.42,5.42,0,0,0,3.24,2.41,5,5,0,0,1-7.78.17A5.39,5.39,0,0,0,278.43,173.38Z" style="fill:#407BFF"></path><g style="opacity:0.7000000000000001"><path d="M283,176a5.39,5.39,0,0,0,4.42-2.3,9.93,9.93,0,0,0,11.32-1,9.7,9.7,0,0,0,1.32.15,9.94,9.94,0,0,0,12.71-.24,6,6,0,0,0,9.51.18,6,6,0,0,0,9.94-.82,5.36,5.36,0,0,0,8.26-.34A5,5,0,0,1,331.9,174a5.59,5.59,0,0,1-9.21.75,5.59,5.59,0,0,1-8.83-.17,9.21,9.21,0,0,1-11.79.23,9.9,9.9,0,0,1-1.22-.14,9.21,9.21,0,0,1-10.51.94,5,5,0,0,1-7.94.32C282.61,176,282.82,176,283,176Z" style="fill:#fff"></path><path d="M278.43,173.38a5.42,5.42,0,0,0,3.24,2.41,5,5,0,0,1-7.78.17A5.39,5.39,0,0,0,278.43,173.38Z" style="fill:#fff"></path></g></g><g id="freepik--Tooth--inject-3"><path d="M248.25,318.3s.53,14.7,8.88,14.7,16.69-41.73,16.69-41.73V261.45l-14.31-6.95L248.25,273,244,300.81Z" style="fill:#407BFF"></path><path d="M248.25,318.3s.53,14.7,8.88,14.7,16.69-41.73,16.69-41.73V261.45l-14.31-6.95L248.25,273,244,300.81Z" style="fill:#fff;opacity:0.7000000000000001"></path><path d="M248.25,318.3s.53,14.7,8.88,14.7,16.69-41.73,16.69-41.73V261.45l-14.31-6.95L248.25,273,244,300.81Z" style="opacity:0.2"></path><path d="M194.92,264.63c-1,13.28-3.58,29.22,8.94,52.47s26.24,20.28,22.06-5.36c0,0,4.18,23.85,17.29,23.85s10.14-59,19.68-59,0,59,13.71,59,28.62-31.6,25.64-56,0-36.37,9.54-51.87,10.55-56.81-17.29-52.47c-5.11.8-20.27,4.17-20.27,4.17s-11.93-8.94-25-1.78c0,0-14.91-10.14-29.82,1.19,0,0-20.86-11.93-33.39,1.79s-6.55,37.56,0,49.48S196,249.18,194.92,264.63Z" style="fill:#407BFF"></path><path d="M194.92,264.63c-1,13.28-3.58,29.22,8.94,52.47s26.24,20.28,22.06-5.36c0,0,4.18,23.85,17.29,23.85s10.14-59,19.68-59,0,59,13.71,59,28.62-31.6,25.64-56,0-36.37,9.54-51.87,10.55-56.81-17.29-52.47c-5.11.8-20.27,4.17-20.27,4.17s-11.93-8.94-25-1.78c0,0-14.91-10.14-29.82,1.19,0,0-20.86-11.93-33.39,1.79s-6.55,37.56,0,49.48S196,249.18,194.92,264.63Z" style="fill:#fff;opacity:0.8"></path><g style="opacity:0.1"><path d="M205.05,276.16c-1,9,4.76,45.11,12.3,56.18,6.76,2.66,11.19-4.5,8.57-20.6,0,0-4.17-15.31-7.35-31.21S206.25,265.43,205.05,276.16Z"></path><path d="M225.92,311.74s.09.5.28,1.34C226,312.24,225.92,311.74,225.92,311.74Z"></path></g><path d="M268.65,270.2c-6.75-3.18-10.28,12.73-10.28,12.73,1.15-3.91,2.57-6.37,4.52-6.37,9.54,0,0,59,13.71,59C268.25,335.59,275.41,273.38,268.65,270.2Z" style="opacity:0.1"></path><path d="M294.49,175.2c-5.11.8-20.27,4.17-20.27,4.17s-11.93-8.94-25-1.78c0,0-14.91-10.14-29.82,1.19,0,0-20.86-11.93-33.39,1.79-7.48,8.19-8.36,20-6.45,30.74,0,0,5.26,17.95,19.57,14.37s23.85,0,59.82,7.55,49.67,1.65,56.34-13.48C321,201.4,318.4,171.48,294.49,175.2Z" style="fill:#fff;opacity:0.4"></path><path d="M228.62,298.53a2.67,2.67,0,0,1-3.2-2.08c-3.06-15.2-3.68-27.65-4.22-38.7-.19-3.82-.37-7.48-.65-10.91A2.68,2.68,0,0,1,223,244h0a2.7,2.7,0,0,1,2.95,2.48c.28,3.5.46,7.19.65,11,.54,10.85,1.14,23.08,4.12,37.87a2.7,2.7,0,0,1-2.07,3.18Z" style="fill:#407BFF"></path><path d="M216.79,226.55a73.15,73.15,0,0,1-.64-30.06,2.83,2.83,0,0,1,3.52-2.21h0a2.82,2.82,0,0,1,2.06,3.24c-.9,4.88-2.33,16,.56,27.67a2.83,2.83,0,0,1-1.92,3.39h0A2.84,2.84,0,0,1,216.79,226.55Z" style="fill:#407BFF"></path><g style="opacity:0.9"><path d="M228.62,298.53a2.67,2.67,0,0,1-3.2-2.08c-3.06-15.2-3.68-27.65-4.22-38.7-.19-3.82-.37-7.48-.65-10.91A2.68,2.68,0,0,1,223,244h0a2.7,2.7,0,0,1,2.95,2.48c.28,3.5.46,7.19.65,11,.54,10.85,1.14,23.08,4.12,37.87a2.7,2.7,0,0,1-2.07,3.18Z" style="fill:#fff"></path></g><g style="opacity:0.9"><path d="M216.79,226.55a73.15,73.15,0,0,1-.64-30.06,2.83,2.83,0,0,1,3.52-2.21h0a2.82,2.82,0,0,1,2.06,3.24c-.9,4.88-2.33,16,.56,27.67a2.83,2.83,0,0,1-1.92,3.39h0A2.84,2.84,0,0,1,216.79,226.55Z" style="fill:#fff"></path></g><path d="M208.43,174.75a5.05,5.05,0,0,0-1.79,7.6c3.43,3.68,12.72-3.57,12.72-3.57A42.79,42.79,0,0,0,208.43,174.75Z" style="opacity:0.1"></path><path d="M288.92,179.07c-6,1.3-14.7.3-14.7.3s-11.93-8.94-25-1.78a52.8,52.8,0,0,0,24.64,5.81C288.53,183.4,294.89,177.78,288.92,179.07Z" style="opacity:0.1"></path></g></svg>
