<svg xmlns="http://www.w3.org/2000/svg" viewBox="0 0 500 500"><g id="freepik--Floor--inject-5"><path id="freepik--floor--inject-5" d="M77.18,250.4c-95.45,55.1-95.45,144.45,0,199.55s250.2,55.11,345.64,0,95.45-144.45,0-199.55S172.62,195.29,77.18,250.4Z" style="fill:#fafafa"></path></g><g id="freepik--Shadows--inject-5"><path id="freepik--Shadow--inject-5" d="M376.45,300.66c-23.62,13.63-23.62,35.74,0,49.38s61.91,13.64,85.53,0,23.62-35.75,0-49.38S400.07,287,376.45,300.66Z" style="fill:#e0e0e0"></path><path id="freepik--shadow--inject-5" d="M82.16,282.67c-14,8.11-14,21.25,0,29.36S119,320.14,133,312s14.05-21.25,0-29.36S96.2,274.56,82.16,282.67Z" style="fill:#e0e0e0"></path><path id="freepik--shadow--inject-5" d="M145,248.31c-13.62,7.87-13.62,20.62,0,28.49s35.71,7.86,49.33,0,13.63-20.62,0-28.49S158.65,240.45,145,248.31Z" style="fill:#e0e0e0"></path><path id="freepik--shadow--inject-5" d="M462.39,384.5l-4.82-2.79a3.7,3.7,0,0,0-3.52.09l-88.84,52.68c-4.85-2.83-11.56-4.58-19-4.58-14.82,0-26.83,7-26.83,15.66s12,15.66,26.83,15.66,26.82-7,26.82-15.66a11,11,0,0,0-3.38-7.62l92.65-51.46C463.36,386,463.38,385.07,462.39,384.5Z" style="fill:#e0e0e0"></path></g><g id="freepik--Mouthwash--inject-5"><g id="freepik--mouthwash--inject-5"><path d="M22.48,259.72c0,1.49,1,3,3,4.13l25.92,15a15.76,15.76,0,0,0,14.28,0l66.12-38.17c2-1.14,3-2.64,3-4.13V198.68c0-1.49-1-3-3-4.12l-25.92-15a15.76,15.76,0,0,0-14.28,0L25.44,217.77c-2,1.14-3,2.63-3,4.13Z" style="fill:#ebebeb"></path><path d="M25.44,217.77,58.5,198.69v81.83a14.58,14.58,0,0,1-7.14-1.71l-25.92-15c-2-1.14-3-2.64-3-4.13V221.9C22.48,220.4,23.47,218.91,25.44,217.77Z" style="fill:#e6e6e6"></path><path d="M105.85,179.6l25.91,15c2,1.14,3,2.63,3,4.13s-1,3-3,4.12L65.64,241a15.76,15.76,0,0,1-14.28,0L25.44,226c-2-1.14-3-2.63-3-4.12s1-3,3-4.13L91.56,179.6A15.78,15.78,0,0,1,105.85,179.6Z" style="fill:#f5f5f5"></path><path d="M27.25,221.4c0,1.29.85,2.59,2.57,3.58l22.49,13a13.77,13.77,0,0,0,12.41,0l63.4-36.56c1.72-1,2.57-2.29,2.57-3.58V124.91c0-1.3-.85-2.59-2.57-3.58l-22.49-13a13.69,13.69,0,0,0-12.4,0L29.82,144.9c-1.72,1-2.57,2.28-2.57,3.58Z" style="fill:#ebebeb"></path><path d="M120.56,140.25,68.19,170.46,63.24,179V229.5l4.95,2.86,52.37-30.22,4.94-8.57V143.11Z" style="fill:#fafafa"></path><path d="M29.82,144.9l28.69,13.27v81.28a12.8,12.8,0,0,1-6.2-1.48L29.82,225c-1.72-1-2.57-2.29-2.57-3.58V148.48C27.25,147.18,28.1,145.89,29.82,144.9Z" style="fill:#e6e6e6"></path><path d="M29.82,144.9l63.41-36.56a13.69,13.69,0,0,1,12.4,0l22.49,13c1.72,1,2.57,2.28,2.57,3.58v11.22l-65,37.55a15.76,15.76,0,0,1-14.28,0L27.25,159.76V148.48C27.25,147.18,28.1,145.89,29.82,144.9Z" style="opacity:0.1"></path><path d="M105.63,108.34l22.49,13c1.72,1,2.57,2.28,2.57,3.58s-.85,2.59-2.57,3.58L64.71,165.05a13.69,13.69,0,0,1-12.4,0l-22.49-13c-1.71-1-2.57-2.28-2.57-3.58s.85-2.59,2.57-3.58l63.41-36.56A13.69,13.69,0,0,1,105.63,108.34Z" style="fill:#f5f5f5"></path><path d="M22.48,148c0,1.5,1,3,3,4.13l25.92,15a15.76,15.76,0,0,0,14.28,0l66.12-38.17c2-1.14,3-2.63,3-4.13V86.93c0-1.5-1-3-3-4.13l-25.92-15a15.76,15.76,0,0,0-14.28,0L25.44,106c-2,1.14-3,2.63-3,4.13Z" style="fill:#ebebeb"></path><path d="M25.44,106,58.5,86.93v81.83a14.58,14.58,0,0,1-7.14-1.71l-25.92-15c-2-1.14-3-2.63-3-4.13V110.14C22.48,108.64,23.47,107.15,25.44,106Z" style="fill:#e6e6e6"></path><path d="M105.85,67.84l25.91,15c2,1.14,3,2.63,3,4.13s-1,3-3,4.12L65.64,129.22a15.76,15.76,0,0,1-14.28,0l-25.92-15c-2-1.14-3-2.63-3-4.12s1-3,3-4.13L91.56,67.84A15.78,15.78,0,0,1,105.85,67.84Z" style="fill:#f5f5f5"></path><path d="M59.11,82.77V98c0,2.77,1.83,5.54,5.49,7.66,7.32,4.22,19.18,4.22,26.5,0,3.66-2.12,5.49-4.89,5.49-7.66V82.77Z" style="fill:#ebebeb"></path><path d="M64.6,90.42c7.32,4.23,19.18,4.23,26.5,0s7.32-11.08,0-15.3-19.18-4.23-26.5,0S57.28,86.2,64.6,90.42Z" style="fill:#f5f5f5"></path><path d="M58.5,49.59V83.66c0,2.86,1.89,5.72,5.67,7.9,7.55,4.36,19.8,4.36,27.36,0,3.78-2.18,5.67-5,5.67-7.9V49.59Z" style="fill:#e0e0e0"></path><path d="M58.5,49.59V83.66c0,2.86,1.89,5.72,5.67,7.9,7.55,4.36,19.8,4.36,27.36,0,3.78-2.18,5.67-5,5.67-7.9V49.59Z" style="opacity:0.1"></path><path d="M64.17,57.49c7.55,4.37,19.8,4.37,27.36,0s7.56-11.43,0-15.8-19.81-4.36-27.36,0S56.61,53.13,64.17,57.49Z" style="fill:#e0e0e0"></path></g></g><g id="freepik--Toothpaste--inject-5"><g id="freepik--toothpaste--inject-5"><path d="M192.94,258.27h0V235.72H146.35v22.55h0c0,4,1.8,7.7,6.84,10.61,9.11,5.26,23.89,5.26,33,0C191.22,266,192.94,262.1,192.94,258.27Z" style="fill:#025FCC"></path><path d="M146.35,258.27c0,4,1.8,7.7,6.84,10.61,9.11,5.26,23.89,5.26,33,0,5-2.91,6.75-6.78,6.75-10.61" style="fill:#025FCC"></path><path d="M186.19,261.6c-9.11,5.27-23.89,5.27-33,0-5-2.9-6.84-6.59-6.84-10.6v1.81c0,4,1.8,7.71,6.84,10.61,9.11,5.26,23.89,5.26,33,0,5-2.9,6.75-6.78,6.75-10.61V251C192.94,254.82,191.22,258.7,186.19,261.6Z" style="opacity:0.15"></path><path d="M140.07,90.26a7,7,0,0,1,3.16-5.47l52.92-30.55c1.74-1,3.15-.19,3.15,1.82V69.51l-59.23,34.2Z" style="fill:#37474f"></path><path d="M201.1,235.71l-1.8-166.2-59.23,34.2-1.79,132h0c0,4.64,3.06,9.28,9.2,12.82,12.26,7.08,32.15,7.08,44.42,0C198,245,201.1,240.35,201.1,235.71Z" style="fill:#455a64"></path><path d="M201.1,235.71l-1.8-166.2-59.23,34.2-1.79,132h0c0,4.64,3.06,9.28,9.2,12.82,12.26,7.08,32.15,7.08,44.42,0C198,245,201.1,240.35,201.1,235.71Z" style="fill:#455a64"></path><path d="M147.48,248.54c12.26,7.08,32.15,7.08,44.42,0a23,23,0,0,0,5.73-4.53,28.73,28.73,0,0,1-22.72,6.52c-10.58-1.56-18.44-8.8-22.61-39.16s-6.54-102.66-7.53-114.07,1.44-14.23,8.9-18.54l-10.44,6a7,7,0,0,0-3.16,5.47v13.45l-1.79,132h0C138.28,240.36,141.34,245,147.48,248.54Z" style="opacity:0.2"></path><path d="M168.24,187c-2,0-3.64.93-3.64,2.33s1.63,2.68,3.64,2.72c8.3.18,16.7-1.52,23-5.18,6.06-3.5,9.17-8,9.17-12.62l-.06-5.1c0,4.58-3,9.17-9.11,12.67C184.94,185.5,176.54,187.2,168.24,187Z" style="fill:#025FCC"></path><path d="M185.86,161.22c1.68-1,2.86.43,3.48,2.86a43.76,43.76,0,0,1,.85,7.4c.05,1.47,1.19,1.63,2.21-.69a25.73,25.73,0,0,0,1.74-9.25c.12-4.83-.52-6.25-.28-9.24.26-3.2,1.45-6.52,1.21-10.33s-1.79-7.54-4.92-6.67-4,3.82-5.63,4.76-2.81-.81-5.82,1.85-4,7.87-3.75,11.68,1.75,5.57,2.38,8.26c.59,2.5.17,4.54.87,8.89.53,3.29,1.52,5.62,2.75,6.66s2.27-.39,2.13-1.81a50.6,50.6,0,0,1-.11-7.83C183.25,164.81,184.18,162.18,185.86,161.22Z" style="fill:#fff"></path><path d="M201.1,235.71c0,4.65-3.06,9.29-9.2,12.83-12.27,7.08-32.16,7.08-44.42,0a21.25,21.25,0,0,1-6.9-6,11.82,11.82,0,0,1-2.3-6.82l.38-27.61c.22,4.41,3.25,8.77,9.08,12.14,12.13,7,31.81,7,43.95,0,6.07-3.51,9.11-8.1,9.11-12.7Z" style="fill:#025FCC"></path><path d="M201.1,235.71c0,4.65-3.06,9.29-9.2,12.83-12.27,7.08-32.16,7.08-44.42,0a21.25,21.25,0,0,1-6.9-6,11.82,11.82,0,0,1-2.3-6.82l.38-27.61c.22,4.41,3.25,8.77,9.08,12.14,12.13,7,31.81,7,43.95,0,6.07-3.51,9.11-8.1,9.11-12.7Z" style="fill:#fff;opacity:0.6000000000000001"></path><path d="M197.63,244a28.73,28.73,0,0,1-22.72,6.52c-9-1.34-16.1-6.84-20.57-27.4a35.11,35.11,0,0,1-6.6-2.88c-5.83-3.37-8.86-7.73-9.08-12.14l-.38,27.61a11.82,11.82,0,0,0,2.3,6.82,21.25,21.25,0,0,0,6.9,6c12.26,7.08,32.15,7.08,44.42,0l.09,0c.49-.29,1-.59,1.41-.89l.34-.23c.48-.32.93-.65,1.36-1l0,0c.44-.35.85-.71,1.24-1.07l.12-.11C196.9,244.79,197.28,244.4,197.63,244Z" style="fill:#025FCC;opacity:0.4"></path></g></g><g id="freepik--Toothbrush--inject-5"><g id="freepik--toothbrush--inject-5"><g id="freepik--Jar--inject-5"><path d="M79.36,205.77c0-4.1,2.71-8.19,8.12-11.32,10.83-6.25,28.38-6.25,39.21,0,5.41,3.13,8.12,7.22,8.12,11.32h0V293.4h0c0,4.1-2.71,8.19-8.12,11.32-10.83,6.25-28.38,6.25-39.21,0-5.41-3.13-8.12-7.22-8.12-11.32h0Z" style="fill:#025FCC"></path><path d="M125.09,303.46c-10,5-26.07,5-36,0s-9.94-13.1,0-18.1,26.08-5,36,0S135,298.46,125.09,303.46Z" style="fill:#025FCC;opacity:0.30000000000000004"></path></g><path d="M124.31,301.74c-9.52,5.49-24.94,5.49-34.46,0s-9.51-14.4,0-19.89,25-5.5,34.46,0S133.82,296.25,124.31,301.74Z" style="opacity:0.2"></path><path d="M126.69,217.09c-10.83,6.25-28.38,6.25-39.21,0s-10.83-16.39,0-22.64,28.38-6.25,39.21,0S137.51,210.84,126.69,217.09Z" style="fill:#025FCC"></path><path d="M126.69,217.09c-10.83,6.25-28.38,6.25-39.21,0s-10.83-16.39,0-22.64,28.38-6.25,39.21,0S137.51,210.84,126.69,217.09Z" style="fill:#fff;opacity:0.2"></path><path d="M124.31,215.71c-9.52,5.5-24.94,5.5-34.46,0s-9.51-14.39,0-19.89,25-5.49,34.46,0S133.82,210.22,124.31,215.71Z" style="opacity:0.2"></path><g id="freepik--Brush--inject-5"><path d="M94.25,164.62l-3-1.26,19,134a3.62,3.62,0,0,0,2.08,3l2.87,1.23.11,0a2.09,2.09,0,0,0,.35.13l.36.09.38,0h.4a5.24,5.24,0,0,0,2.39-.76,6.88,6.88,0,0,0,2.57-2.79,6.11,6.11,0,0,0,.72-3.58L103.31,159.39Z" style="fill:#455a64"></path><path d="M94.25,164.62l19,134a3.67,3.67,0,0,0,2,3l.11,0a2.09,2.09,0,0,0,.35.13l.36.09.38,0h.4a5.24,5.24,0,0,0,2.39-.76,6.88,6.88,0,0,0,2.57-2.79,6.11,6.11,0,0,0,.72-3.58L103.31,159.39Z" style="fill:#37474f"></path><path d="M97.06,130.38a6.1,6.1,0,0,0-5.46.67,13.89,13.89,0,0,0-6.34,13l2.08,14.65a6.3,6.3,0,0,0,3.94,4.7l3,1.26h0l9.06-5.23a17.49,17.49,0,0,0,1.77-10.55l-1.74-12.29a5.87,5.87,0,0,0-3.28-4.89Z"></path><path d="M94.25,164.62l9.06-5.23h0a17.49,17.49,0,0,0,1.77-10.55l-1.74-12.29c-.68-4.75-4.6-6.65-8.78-4.24a13.89,13.89,0,0,0-6.33,13l2.08,14.65a6.28,6.28,0,0,0,3.94,4.7Z" style="fill:#37474f"></path><path d="M103.16,152.37h0a.51.51,0,0,0-.42.07,1,1,0,0,0-.5.95.4.4,0,0,0,.21.33h0l8.4,4.3,1.31-2.52Z" style="fill:#e0e0e0"></path><path d="M110.85,158l.46-.88c-2.69-1.08-7.21-3-8-3.39s-1-.76-.8-1.13a1,1,0,0,0-.27.77.4.4,0,0,0,.21.33h0Z" style="opacity:0.1"></path><path d="M110.45,157.4c.09.64.65.87,1.24.53a1.94,1.94,0,0,0,.93-1.78c-.09-.65-.64-.88-1.24-.53A1.91,1.91,0,0,0,110.45,157.4Z" style="fill:#ebebeb"></path><path d="M102.83,150h0a.51.51,0,0,0-.42.07,1,1,0,0,0-.5,1,.38.38,0,0,0,.21.32h0l8.4,4.29,1.31-2.52Z" style="fill:#e0e0e0"></path><path d="M110.52,155.68l.45-.88c-2.68-1.08-7.2-3-8-3.39s-1-.76-.8-1.13a1,1,0,0,0-.27.78.38.38,0,0,0,.21.32h0Z" style="opacity:0.1"></path><path d="M110.12,155.06c.09.64.64.88,1.24.53a2,2,0,0,0,.93-1.78c-.09-.64-.64-.88-1.25-.53A1.92,1.92,0,0,0,110.12,155.06Z" style="fill:#ebebeb"></path><path d="M102.49,147.69h0a.47.47,0,0,0-.42.06,1,1,0,0,0-.49,1,.38.38,0,0,0,.21.32h0l8.4,4.29,1.31-2.52Z" style="fill:#e0e0e0"></path><path d="M110.19,153.34l.45-.88c-2.68-1.08-7.2-3-8-3.39s-1-.76-.8-1.12a1,1,0,0,0-.27.77.38.38,0,0,0,.21.32h0Z" style="opacity:0.1"></path><path d="M109.78,152.72a.76.76,0,0,0,1.25.53,2,2,0,0,0,.93-1.78c-.09-.64-.65-.88-1.25-.53A1.94,1.94,0,0,0,109.78,152.72Z" style="fill:#ebebeb"></path><path d="M102.16,145.36h0a.51.51,0,0,0-.42.06,1.08,1.08,0,0,0-.5,1,.47.47,0,0,0,.21.33h0l8.4,4.29,1.31-2.52Z" style="fill:#025FCC"></path><path d="M109.85,151l.46-.87c-2.68-1.09-7.2-3-8-3.4s-1-.76-.8-1.12a1,1,0,0,0-.28.77.47.47,0,0,0,.21.33h0Z" style="opacity:0.1"></path><path d="M109.45,150.38c.09.64.65.88,1.25.53a1.92,1.92,0,0,0,.92-1.78c-.08-.64-.64-.88-1.24-.53A2,2,0,0,0,109.45,150.38Z" style="fill:#025FCC"></path><path d="M109.45,150.38c.09.64.65.88,1.25.53a1.92,1.92,0,0,0,.92-1.78c-.08-.64-.64-.88-1.24-.53A2,2,0,0,0,109.45,150.38Z" style="fill:#fff;opacity:0.30000000000000004"></path><path d="M101.83,143h0a.5.5,0,0,0-.42.06,1.06,1.06,0,0,0-.5,1,.42.42,0,0,0,.21.33h0l8.4,4.29,1.31-2.52Z" style="fill:#025FCC"></path><path d="M109.52,148.66l.46-.87c-2.69-1.09-7.21-3-8-3.39s-1-.77-.8-1.13a1,1,0,0,0-.27.77.42.42,0,0,0,.21.33h0Z" style="opacity:0.1"></path><path d="M109.12,148.05c.09.63.65.87,1.25.52a1.94,1.94,0,0,0,.92-1.78c-.08-.64-.64-.88-1.24-.53A1.94,1.94,0,0,0,109.12,148.05Z" style="fill:#025FCC"></path><path d="M109.12,148.05c.09.63.65.87,1.25.52a1.94,1.94,0,0,0,.92-1.78c-.08-.64-.64-.88-1.24-.53A1.94,1.94,0,0,0,109.12,148.05Z" style="fill:#fff;opacity:0.30000000000000004"></path><path d="M101.5,140.68h0a.5.5,0,0,0-.42.06,1,1,0,0,0-.5,1,.42.42,0,0,0,.21.33h0l8.4,4.3,1.31-2.52Z" style="fill:#025FCC"></path><path d="M109.19,146.33l.46-.88c-2.69-1.09-7.21-3-8-3.39s-1-.77-.8-1.13a1,1,0,0,0-.27.77.42.42,0,0,0,.21.33h0Z" style="opacity:0.1"></path><path d="M108.79,145.71a.76.76,0,0,0,1.24.53,2,2,0,0,0,.93-1.79c-.09-.64-.64-.87-1.25-.53A2,2,0,0,0,108.79,145.71Z" style="fill:#025FCC"></path><path d="M108.79,145.71a.76.76,0,0,0,1.24.53,2,2,0,0,0,.93-1.79c-.09-.64-.64-.87-1.25-.53A2,2,0,0,0,108.79,145.71Z" style="fill:#fff;opacity:0.30000000000000004"></path><path d="M101.17,138.34h0a.54.54,0,0,0-.42.06,1,1,0,0,0-.5,1,.42.42,0,0,0,.21.33h0l8.4,4.3,1.31-2.52Z" style="fill:#e0e0e0"></path><path d="M108.86,144l.45-.88c-2.68-1.08-7.2-3-8-3.39s-1-.77-.8-1.13a1,1,0,0,0-.27.77.42.42,0,0,0,.21.33h0Z" style="opacity:0.1"></path><path d="M108.46,143.37c.09.64.64.87,1.24.53a2,2,0,0,0,.93-1.79c-.09-.64-.64-.87-1.25-.53A2,2,0,0,0,108.46,143.37Z" style="fill:#ebebeb"></path><path d="M100.83,136h0a.51.51,0,0,0-.42.07,1,1,0,0,0-.49,1,.38.38,0,0,0,.21.32h0l8.4,4.3,1.31-2.52Z" style="fill:#e0e0e0"></path><path d="M108.53,141.65l.45-.88c-2.68-1.08-7.2-3-8-3.39s-1-.76-.8-1.13a1,1,0,0,0-.27.78.38.38,0,0,0,.21.32h0Z" style="opacity:0.1"></path><path d="M108.12,141c.1.64.65.87,1.25.53a2,2,0,0,0,.93-1.78c-.09-.64-.65-.88-1.25-.53A1.93,1.93,0,0,0,108.12,141Z" style="fill:#ebebeb"></path><path d="M100.5,133.66h0a.47.47,0,0,0-.42.06,1.06,1.06,0,0,0-.5,1,.43.43,0,0,0,.21.32h0l8.4,4.29,1.31-2.52Z" style="fill:#e0e0e0"></path><path d="M108.19,139.31l.46-.88c-2.68-1.08-7.2-3-8-3.39s-1-.76-.8-1.13a1,1,0,0,0-.28.78.43.43,0,0,0,.21.32h0Z" style="opacity:0.1"></path><path d="M107.79,138.69c.09.64.65.88,1.25.53a1.92,1.92,0,0,0,.92-1.78c-.08-.64-.64-.88-1.24-.53A1.94,1.94,0,0,0,107.79,138.69Z" style="fill:#ebebeb"></path><path d="M101.17,157.31h0a.5.5,0,0,0-.42.06,1.06,1.06,0,0,0-.5,1,.42.42,0,0,0,.21.33h0l8.4,4.29,1.31-2.52Z" style="fill:#e0e0e0"></path><path d="M108.86,163l.46-.87c-2.69-1.09-7.21-3-8-3.4s-1-.76-.8-1.12a1,1,0,0,0-.27.77.42.42,0,0,0,.21.33h0Z" style="opacity:0.1"></path><path d="M108.46,162.33a.75.75,0,0,0,1.24.53,1.93,1.93,0,0,0,.93-1.78c-.08-.64-.64-.88-1.24-.53A1.93,1.93,0,0,0,108.46,162.33Z" style="fill:#ebebeb"></path><path d="M100.84,155h0a.5.5,0,0,0-.42.06,1,1,0,0,0-.5,1,.42.42,0,0,0,.21.33h0l8.4,4.29,1.31-2.52Z" style="fill:#e0e0e0"></path><path d="M108.53,160.61l.45-.87c-2.68-1.09-7.2-3-8-3.39s-1-.77-.8-1.13a1,1,0,0,0-.27.77.42.42,0,0,0,.21.33h0Z" style="opacity:0.1"></path><path d="M108.13,160a.76.76,0,0,0,1.24.53,2,2,0,0,0,.93-1.79c-.09-.64-.64-.88-1.25-.53A2,2,0,0,0,108.13,160Z" style="fill:#ebebeb"></path><path d="M100.5,152.63h0a.52.52,0,0,0-.41.06,1,1,0,0,0-.5,1,.42.42,0,0,0,.21.33h0l8.4,4.3,1.31-2.52Z" style="fill:#e0e0e0"></path><path d="M108.2,158.28l.45-.88c-2.68-1.08-7.2-3-8-3.39s-1-.77-.8-1.13a1,1,0,0,0-.27.77.42.42,0,0,0,.21.33h0Z" style="opacity:0.1"></path><path d="M107.8,157.66c.09.64.64.87,1.24.53a2,2,0,0,0,.93-1.79c-.09-.64-.65-.87-1.25-.53A1.93,1.93,0,0,0,107.8,157.66Z" style="fill:#ebebeb"></path><path d="M100.17,150.29h0a.51.51,0,0,0-.42.07,1.05,1.05,0,0,0-.5.95.43.43,0,0,0,.22.33h0l8.4,4.3,1.31-2.52Z" style="fill:#e0e0e0"></path><path d="M107.86,155.94l.46-.88c-2.68-1.08-7.2-3-8-3.39s-1-.76-.8-1.13a1,1,0,0,0-.28.77.43.43,0,0,0,.22.33h0Z" style="opacity:0.1"></path><path d="M107.46,155.32c.09.64.65.87,1.25.53a2,2,0,0,0,.93-1.78c-.09-.65-.65-.88-1.25-.53A1.93,1.93,0,0,0,107.46,155.32Z" style="fill:#ebebeb"></path><path d="M99.84,148h0a.51.51,0,0,0-.42.07,1,1,0,0,0-.5,1,.4.4,0,0,0,.21.32h0l8.4,4.29,1.31-2.52Z" style="fill:#025FCC"></path><path d="M107.53,153.6l.46-.88c-2.68-1.08-7.2-3-8-3.39s-1-.76-.8-1.13a1.07,1.07,0,0,0-.27.78.4.4,0,0,0,.21.32h0Z" style="opacity:0.1"></path><path d="M107.13,153c.09.64.65.88,1.25.53a1.94,1.94,0,0,0,.92-1.78c-.08-.64-.64-.88-1.24-.53A1.93,1.93,0,0,0,107.13,153Z" style="fill:#025FCC"></path><path d="M107.13,153c.09.64.65.88,1.25.53a1.94,1.94,0,0,0,.92-1.78c-.08-.64-.64-.88-1.24-.53A1.93,1.93,0,0,0,107.13,153Z" style="fill:#fff;opacity:0.30000000000000004"></path><path d="M99.51,145.61h0a.47.47,0,0,0-.42.06,1,1,0,0,0-.5,1,.42.42,0,0,0,.21.33h0l8.4,4.29,1.31-2.52Z" style="fill:#025FCC"></path><path d="M107.2,151.26l.46-.88c-2.69-1.08-7.21-3-8-3.39s-1-.76-.8-1.12a1,1,0,0,0-.27.77.42.42,0,0,0,.21.33h0Z" style="opacity:0.1"></path><path d="M106.8,150.64a.75.75,0,0,0,1.24.53,1.93,1.93,0,0,0,.93-1.78c-.08-.64-.64-.88-1.24-.53A1.92,1.92,0,0,0,106.8,150.64Z" style="fill:#025FCC"></path><path d="M106.8,150.64a.75.75,0,0,0,1.24.53,1.93,1.93,0,0,0,.93-1.78c-.08-.64-.64-.88-1.24-.53A1.92,1.92,0,0,0,106.8,150.64Z" style="fill:#fff;opacity:0.30000000000000004"></path><path d="M99.18,143.28h0a.5.5,0,0,0-.42.06,1,1,0,0,0-.5,1,.42.42,0,0,0,.21.33h0l8.4,4.29,1.31-2.52Z" style="fill:#025FCC"></path><path d="M106.87,148.92l.45-.87c-2.68-1.09-7.2-3-8-3.4s-1-.76-.8-1.12a1,1,0,0,0-.27.77.42.42,0,0,0,.21.33h0Z" style="opacity:0.1"></path><path d="M106.47,148.3a.75.75,0,0,0,1.24.53,2,2,0,0,0,.93-1.78c-.09-.64-.64-.88-1.25-.53A1.94,1.94,0,0,0,106.47,148.3Z" style="fill:#025FCC"></path><path d="M106.47,148.3a.75.75,0,0,0,1.24.53,2,2,0,0,0,.93-1.78c-.09-.64-.64-.88-1.25-.53A1.94,1.94,0,0,0,106.47,148.3Z" style="fill:#fff;opacity:0.30000000000000004"></path><path d="M98.84,140.94h0a.51.51,0,0,0-.42.06,1,1,0,0,0-.49,1,.42.42,0,0,0,.21.33h0l8.4,4.29,1.31-2.52Z" style="fill:#e0e0e0"></path><path d="M106.54,146.58l.45-.87c-2.68-1.09-7.2-3-8-3.39s-1-.77-.8-1.13a1,1,0,0,0-.27.77.42.42,0,0,0,.21.33h0Z" style="opacity:0.1"></path><path d="M106.14,146c.09.63.64.87,1.24.53a2,2,0,0,0,.93-1.79c-.09-.64-.65-.88-1.25-.53A1.93,1.93,0,0,0,106.14,146Z" style="fill:#ebebeb"></path><path d="M98.51,138.6h0a.51.51,0,0,0-.42.06,1.08,1.08,0,0,0-.5,1,.45.45,0,0,0,.22.33h0l8.4,4.3,1.31-2.52Z" style="fill:#e0e0e0"></path><path d="M106.2,144.25l.46-.88c-2.68-1.08-7.2-3-8-3.39s-1-.77-.8-1.13a1,1,0,0,0-.28.77.45.45,0,0,0,.22.33h0Z" style="opacity:0.1"></path><path d="M105.8,143.63c.09.63.65.87,1.25.53a2,2,0,0,0,.92-1.79c-.08-.64-.64-.87-1.24-.53A2,2,0,0,0,105.8,143.63Z" style="fill:#ebebeb"></path><path d="M98.18,136.26h0a.54.54,0,0,0-.42.06,1.06,1.06,0,0,0-.5,1,.42.42,0,0,0,.21.33h0l8.4,4.3,1.31-2.52Z" style="fill:#e0e0e0"></path><path d="M105.87,141.91l.46-.88c-2.68-1.08-7.21-3-8-3.39s-1-.77-.8-1.13a1.06,1.06,0,0,0-.27.77.42.42,0,0,0,.21.33h0Z" style="opacity:0.1"></path><path d="M105.47,141.29c.09.64.65.87,1.25.53a2,2,0,0,0,.92-1.79c-.08-.64-.64-.87-1.24-.53A2,2,0,0,0,105.47,141.29Z" style="fill:#ebebeb"></path><path d="M97.85,133.92h0a.51.51,0,0,0-.42.07,1,1,0,0,0-.5,1,.38.38,0,0,0,.21.32h0l8.4,4.29,1.31-2.52Z" style="fill:#e0e0e0"></path><path d="M105.54,139.57l.46-.88c-2.69-1.08-7.21-3-8-3.39s-1-.76-.8-1.13a1,1,0,0,0-.27.78.38.38,0,0,0,.21.32h0Z" style="opacity:0.1"></path><path d="M105.14,139c.09.64.65.87,1.24.53a1.94,1.94,0,0,0,.93-1.78c-.08-.64-.64-.88-1.24-.53A1.91,1.91,0,0,0,105.14,139Z" style="fill:#ebebeb"></path><path d="M98.8,159.94h0a.51.51,0,0,0-.42.07,1,1,0,0,0-.5,1,.39.39,0,0,0,.21.33h0l8.4,4.3,1.31-2.52Z" style="fill:#e0e0e0"></path><path d="M106.49,165.59l.46-.88c-2.69-1.08-7.21-3-8-3.39s-1-.76-.8-1.13a1.06,1.06,0,0,0-.27.77.39.39,0,0,0,.21.33h0Z" style="opacity:0.1"></path><path d="M106.09,165c.09.64.65.87,1.25.53a2,2,0,0,0,.92-1.78c-.08-.64-.64-.88-1.24-.53A1.91,1.91,0,0,0,106.09,165Z" style="fill:#ebebeb"></path><path d="M98.47,157.6h0a.51.51,0,0,0-.42.07,1,1,0,0,0-.5,1,.38.38,0,0,0,.21.32h0l8.4,4.29,1.31-2.52Z" style="fill:#e0e0e0"></path><path d="M106.16,163.25l.46-.88c-2.69-1.08-7.21-3-8-3.39s-1-.76-.8-1.13a1,1,0,0,0-.27.78.38.38,0,0,0,.21.32h0Z" style="opacity:0.1"></path><path d="M105.76,162.63a.75.75,0,0,0,1.24.53,1.93,1.93,0,0,0,.93-1.78c-.09-.64-.64-.88-1.25-.53A1.92,1.92,0,0,0,105.76,162.63Z" style="fill:#ebebeb"></path><path d="M98.14,155.26h0a.47.47,0,0,0-.42.06,1,1,0,0,0-.5,1,.42.42,0,0,0,.21.33h0l8.4,4.29,1.31-2.52Z" style="fill:#e0e0e0"></path><path d="M105.83,160.91l.45-.88c-2.68-1.08-7.2-3-8-3.39s-1-.76-.8-1.12a1,1,0,0,0-.27.77.42.42,0,0,0,.21.33h0Z" style="opacity:0.1"></path><path d="M105.43,160.29c.09.64.64.88,1.24.53a2,2,0,0,0,.93-1.78c-.09-.64-.65-.88-1.25-.53A1.93,1.93,0,0,0,105.43,160.29Z" style="fill:#ebebeb"></path><path d="M97.8,152.93h0a.51.51,0,0,0-.42.06,1,1,0,0,0-.49,1,.42.42,0,0,0,.21.33h0l8.4,4.29,1.31-2.52Z" style="fill:#e0e0e0"></path><path d="M105.5,158.57l.45-.87c-2.68-1.09-7.2-3-8-3.4s-1-.76-.8-1.12a1,1,0,0,0-.27.77.42.42,0,0,0,.21.33h0Z" style="opacity:0.1"></path><path d="M105.09,158c.09.64.65.88,1.25.53a2,2,0,0,0,.93-1.78c-.09-.64-.65-.88-1.25-.53A2,2,0,0,0,105.09,158Z" style="fill:#ebebeb"></path><path d="M97.47,150.59h0a.51.51,0,0,0-.42.06,1.08,1.08,0,0,0-.5,1,.47.47,0,0,0,.21.33h0l8.4,4.29,1.31-2.52Z" style="fill:#025FCC"></path><path d="M105.16,156.23l.46-.87c-2.68-1.09-7.2-3-8-3.39s-1-.77-.8-1.13a1,1,0,0,0-.28.77.47.47,0,0,0,.21.33h0Z" style="opacity:0.1"></path><path d="M104.76,155.62c.09.63.65.87,1.25.53a2,2,0,0,0,.92-1.79c-.08-.64-.64-.88-1.24-.53A2,2,0,0,0,104.76,155.62Z" style="fill:#025FCC"></path><path d="M104.76,155.62c.09.63.65.87,1.25.53a2,2,0,0,0,.92-1.79c-.08-.64-.64-.88-1.24-.53A2,2,0,0,0,104.76,155.62Z" style="fill:#fff;opacity:0.30000000000000004"></path><path d="M97.14,148.25h0a.5.5,0,0,0-.42.06,1.06,1.06,0,0,0-.5,1,.42.42,0,0,0,.21.33h0l8.4,4.3,1.31-2.52Z" style="fill:#025FCC"></path><path d="M104.83,153.9l.46-.88c-2.69-1.08-7.21-3-8-3.39s-1-.77-.8-1.13a1.06,1.06,0,0,0-.27.77.42.42,0,0,0,.21.33h0Z" style="opacity:0.1"></path><path d="M104.43,153.28c.09.63.65.87,1.25.53a2,2,0,0,0,.92-1.79c-.08-.64-.64-.87-1.24-.53A1.94,1.94,0,0,0,104.43,153.28Z" style="fill:#025FCC"></path><path d="M104.43,153.28c.09.63.65.87,1.25.53a2,2,0,0,0,.92-1.79c-.08-.64-.64-.87-1.24-.53A1.94,1.94,0,0,0,104.43,153.28Z" style="fill:#fff;opacity:0.30000000000000004"></path><path d="M96.81,145.91h0a.54.54,0,0,0-.42.06,1,1,0,0,0-.5,1,.4.4,0,0,0,.21.33h0l8.4,4.3,1.31-2.52Z" style="fill:#025FCC"></path><path d="M104.5,151.56l.46-.88c-2.69-1.08-7.21-3-8-3.39s-1-.77-.8-1.13a1,1,0,0,0-.27.77.4.4,0,0,0,.21.33h0Z" style="opacity:0.1"></path><path d="M104.1,150.94c.09.64.65.87,1.24.53a2,2,0,0,0,.93-1.79c-.09-.64-.64-.87-1.25-.53A2,2,0,0,0,104.1,150.94Z" style="fill:#025FCC"></path><path d="M104.1,150.94c.09.64.65.87,1.24.53a2,2,0,0,0,.93-1.79c-.09-.64-.64-.87-1.25-.53A2,2,0,0,0,104.1,150.94Z" style="fill:#fff;opacity:0.30000000000000004"></path><path d="M96.48,143.57h0a.49.49,0,0,0-.41.07,1,1,0,0,0-.5,1,.38.38,0,0,0,.21.32h0l8.4,4.29,1.31-2.52Z" style="fill:#e0e0e0"></path><path d="M104.17,149.22l.45-.88c-2.68-1.08-7.2-3-8-3.39s-1-.76-.8-1.13a1,1,0,0,0-.27.78.38.38,0,0,0,.21.32h0Z" style="opacity:0.1"></path><path d="M103.77,148.6c.09.64.64.88,1.24.53a2,2,0,0,0,.93-1.78c-.09-.64-.65-.88-1.25-.53A1.92,1.92,0,0,0,103.77,148.6Z" style="fill:#ebebeb"></path><path d="M96.14,141.23h0a.47.47,0,0,0-.42.06,1,1,0,0,0-.49,1,.38.38,0,0,0,.21.32h0l8.4,4.29,1.31-2.52Z" style="fill:#e0e0e0"></path><path d="M103.84,146.88l.45-.88c-2.68-1.08-7.2-3-8-3.39s-1-.76-.8-1.12a1,1,0,0,0-.27.77.38.38,0,0,0,.21.32h0Z" style="opacity:0.1"></path><path d="M103.43,146.26c.09.64.65.88,1.25.53a2,2,0,0,0,.93-1.78c-.09-.64-.65-.88-1.25-.53A1.94,1.94,0,0,0,103.43,146.26Z" style="fill:#ebebeb"></path><path d="M95.81,138.9h0a.47.47,0,0,0-.42.06,1.08,1.08,0,0,0-.5,1,.47.47,0,0,0,.21.33h0l8.4,4.29,1.31-2.52Z" style="fill:#e0e0e0"></path><path d="M103.5,144.54l.46-.87c-2.68-1.09-7.2-3-8-3.4s-1-.76-.8-1.12a1,1,0,0,0-.28.77.47.47,0,0,0,.21.33h0Z" style="opacity:0.1"></path><path d="M103.1,143.92c.09.64.65.88,1.25.53a1.92,1.92,0,0,0,.92-1.78c-.08-.64-.64-.88-1.24-.53A2,2,0,0,0,103.1,143.92Z" style="fill:#ebebeb"></path><path d="M95.48,136.56h0a.5.5,0,0,0-.42.06,1.06,1.06,0,0,0-.5,1,.42.42,0,0,0,.21.33h0l8.4,4.29,1.31-2.52Z" style="fill:#e0e0e0"></path><path d="M103.17,142.2l.46-.87c-2.69-1.09-7.21-3-8-3.39s-1-.77-.8-1.13a1,1,0,0,0-.27.77.42.42,0,0,0,.21.33h0Z" style="opacity:0.1"></path><path d="M102.77,141.58c.09.64.65.88,1.25.53a1.94,1.94,0,0,0,.92-1.78c-.08-.64-.64-.88-1.24-.53A1.93,1.93,0,0,0,102.77,141.58Z" style="fill:#ebebeb"></path><path d="M95.15,134.22h0a.54.54,0,0,0-.42.06,1,1,0,0,0-.5,1,.42.42,0,0,0,.21.33h0l8.4,4.3,1.31-2.52Z" style="fill:#e0e0e0"></path><path d="M102.84,139.87l.46-.88c-2.69-1.08-7.21-3-8-3.39s-1-.77-.8-1.13a1,1,0,0,0-.27.77.42.42,0,0,0,.21.33h0Z" style="opacity:0.1"></path><path d="M102.44,139.25c.09.64.65.87,1.24.53a2,2,0,0,0,.93-1.79c-.09-.64-.64-.87-1.25-.53A2,2,0,0,0,102.44,139.25Z" style="fill:#ebebeb"></path><path d="M96.17,160.19h0a.51.51,0,0,0-.42.07,1.05,1.05,0,0,0-.5,1,.43.43,0,0,0,.22.33h0l8.4,4.3,1.31-2.52Z" style="fill:#e0e0e0"></path><path d="M103.86,165.84l.46-.88c-2.68-1.08-7.2-3-8-3.39s-1-.76-.8-1.13a1,1,0,0,0-.28.77.43.43,0,0,0,.22.33h0Z" style="opacity:0.1"></path><path d="M103.46,165.22c.09.64.65.87,1.25.53a1.93,1.93,0,0,0,.92-1.78c-.08-.65-.64-.88-1.24-.53A1.93,1.93,0,0,0,103.46,165.22Z" style="fill:#ebebeb"></path><path d="M95.84,157.85h0a.51.51,0,0,0-.42.07,1,1,0,0,0-.5,1,.4.4,0,0,0,.21.32h0l8.4,4.29,1.31-2.52Z" style="fill:#e0e0e0"></path><path d="M103.53,163.5l.46-.88c-2.68-1.08-7.21-3-8-3.39s-1-.76-.8-1.13a1.07,1.07,0,0,0-.27.78.4.4,0,0,0,.21.32h0Z" style="opacity:0.1"></path><path d="M103.13,162.88c.09.64.65.88,1.25.53a1.94,1.94,0,0,0,.92-1.78c-.08-.64-.64-.88-1.24-.53A1.91,1.91,0,0,0,103.13,162.88Z" style="fill:#ebebeb"></path><path d="M95.51,155.51h0a.47.47,0,0,0-.42.06,1,1,0,0,0-.5,1,.38.38,0,0,0,.21.32h0l8.4,4.29,1.31-2.52Z" style="fill:#e0e0e0"></path><path d="M103.2,161.16l.46-.88c-2.69-1.08-7.21-3-8-3.39s-1-.76-.8-1.12a1,1,0,0,0-.27.77.38.38,0,0,0,.21.32h0Z" style="opacity:0.1"></path><path d="M102.8,160.54a.75.75,0,0,0,1.24.53,1.93,1.93,0,0,0,.93-1.78c-.09-.64-.64-.88-1.24-.53A1.92,1.92,0,0,0,102.8,160.54Z" style="fill:#ebebeb"></path><path d="M95.18,153.18h0a.5.5,0,0,0-.42.06,1,1,0,0,0-.5,1,.42.42,0,0,0,.21.33h0l8.4,4.29,1.31-2.52Z" style="fill:#e0e0e0"></path><path d="M102.87,158.82l.45-.87c-2.68-1.09-7.2-3-8-3.4s-1-.76-.8-1.12a1,1,0,0,0-.27.77.42.42,0,0,0,.21.33h0Z" style="opacity:0.1"></path><path d="M102.47,158.2c.09.64.64.88,1.24.53a2,2,0,0,0,.93-1.78c-.09-.64-.64-.88-1.25-.53A1.94,1.94,0,0,0,102.47,158.2Z" style="fill:#ebebeb"></path><path d="M94.84,150.84h0a.51.51,0,0,0-.42.06,1,1,0,0,0-.49,1,.42.42,0,0,0,.21.33h0l8.4,4.29,1.31-2.52Z" style="fill:#025FCC"></path><path d="M102.54,156.48l.45-.87c-2.68-1.09-7.2-3-8-3.39s-1-.77-.8-1.13a1,1,0,0,0-.27.77.42.42,0,0,0,.21.33h0Z" style="opacity:0.1"></path><path d="M102.13,155.87a.77.77,0,0,0,1.25.53,2,2,0,0,0,.93-1.79c-.09-.64-.65-.88-1.25-.53A2,2,0,0,0,102.13,155.87Z" style="fill:#025FCC"></path><path d="M102.13,155.87a.77.77,0,0,0,1.25.53,2,2,0,0,0,.93-1.79c-.09-.64-.65-.88-1.25-.53A2,2,0,0,0,102.13,155.87Z" style="fill:#fff;opacity:0.30000000000000004"></path><path d="M94.51,148.5h0a.51.51,0,0,0-.42.06,1.08,1.08,0,0,0-.5,1,.45.45,0,0,0,.22.33h0l8.4,4.3,1.31-2.52Z" style="fill:#025FCC"></path><path d="M102.2,154.15l.46-.88c-2.68-1.08-7.2-3-8-3.39s-1-.77-.8-1.13a1,1,0,0,0-.28.77.45.45,0,0,0,.22.33h0Z" style="opacity:0.1"></path><path d="M101.8,153.53c.09.63.65.87,1.25.53a2,2,0,0,0,.92-1.79c-.08-.64-.64-.87-1.24-.53A2,2,0,0,0,101.8,153.53Z" style="fill:#025FCC"></path><path d="M101.8,153.53c.09.63.65.87,1.25.53a2,2,0,0,0,.92-1.79c-.08-.64-.64-.87-1.24-.53A2,2,0,0,0,101.8,153.53Z" style="fill:#fff;opacity:0.30000000000000004"></path><path d="M94.18,146.16h0a.54.54,0,0,0-.42.06,1.06,1.06,0,0,0-.5,1,.42.42,0,0,0,.21.33h0l8.4,4.3,1.31-2.52Z" style="fill:#025FCC"></path><path d="M101.87,151.81l.46-.88c-2.69-1.08-7.21-3-8-3.39s-1-.77-.8-1.13a1.06,1.06,0,0,0-.27.77.42.42,0,0,0,.21.33h0Z" style="opacity:0.1"></path><path d="M101.47,151.19c.09.64.65.87,1.25.53a2,2,0,0,0,.92-1.79c-.08-.64-.64-.87-1.24-.53A1.94,1.94,0,0,0,101.47,151.19Z" style="fill:#025FCC"></path><path d="M101.47,151.19c.09.64.65.87,1.25.53a2,2,0,0,0,.92-1.79c-.08-.64-.64-.87-1.24-.53A1.94,1.94,0,0,0,101.47,151.19Z" style="fill:#fff;opacity:0.30000000000000004"></path><path d="M93.85,143.82h0a.51.51,0,0,0-.42.07,1,1,0,0,0-.5,1,.38.38,0,0,0,.21.32h0l8.4,4.29,1.31-2.52Z" style="fill:#e0e0e0"></path><path d="M101.54,149.47l.46-.88c-2.69-1.08-7.21-3-8-3.39s-1-.76-.8-1.13a1,1,0,0,0-.27.78.38.38,0,0,0,.21.32h0Z" style="opacity:0.1"></path><path d="M101.14,148.85c.09.64.65.87,1.24.53a1.94,1.94,0,0,0,.93-1.78c-.09-.64-.64-.88-1.25-.53A1.92,1.92,0,0,0,101.14,148.85Z" style="fill:#ebebeb"></path><path d="M93.52,141.48h0a.47.47,0,0,0-.42.06,1,1,0,0,0-.5,1,.38.38,0,0,0,.21.32h0l8.4,4.29,1.31-2.52Z" style="fill:#e0e0e0"></path><path d="M101.21,147.13l.45-.88c-2.68-1.08-7.2-3-8-3.39s-1-.76-.8-1.12a1,1,0,0,0-.27.77.38.38,0,0,0,.21.32h0Z" style="opacity:0.1"></path><path d="M100.81,146.51c.09.64.64.88,1.24.53a2,2,0,0,0,.93-1.78c-.09-.64-.64-.88-1.25-.53A1.93,1.93,0,0,0,100.81,146.51Z" style="fill:#ebebeb"></path><path d="M93.18,139.15h0a.47.47,0,0,0-.42.06,1,1,0,0,0-.49,1,.42.42,0,0,0,.21.33h0l8.4,4.29,1.31-2.52Z" style="fill:#e0e0e0"></path><path d="M100.88,144.79l.45-.87c-2.68-1.09-7.2-3-8-3.4s-1-.76-.8-1.12a1,1,0,0,0-.27.77.42.42,0,0,0,.21.33h0Z" style="opacity:0.1"></path><path d="M100.47,144.17a.76.76,0,0,0,1.25.53,2,2,0,0,0,.93-1.78c-.09-.64-.65-.88-1.25-.53A2,2,0,0,0,100.47,144.17Z" style="fill:#ebebeb"></path><path d="M92.85,136.81h0a.51.51,0,0,0-.42.06,1.08,1.08,0,0,0-.5,1,.47.47,0,0,0,.21.33h0l8.4,4.29,1.31-2.52Z" style="fill:#e0e0e0"></path><path d="M100.54,142.45l.46-.87c-2.68-1.09-7.2-3-8-3.4s-1-.76-.8-1.12a1,1,0,0,0-.28.77.47.47,0,0,0,.21.33h0Z" style="opacity:0.1"></path><path d="M100.14,141.83c.09.64.65.88,1.25.53a1.92,1.92,0,0,0,.92-1.78c-.08-.64-.64-.88-1.24-.53A2,2,0,0,0,100.14,141.83Z" style="fill:#ebebeb"></path><path d="M93.14,158.15h0a.5.5,0,0,0-.42.06,1.06,1.06,0,0,0-.5,1,.42.42,0,0,0,.21.33h0l8.4,4.3,1.31-2.52Z" style="fill:#e0e0e0"></path><path d="M100.83,163.8l.46-.88c-2.69-1.08-7.21-3-8-3.39s-1-.77-.8-1.13a1.06,1.06,0,0,0-.27.77.42.42,0,0,0,.21.33h0Z" style="opacity:0.1"></path><path d="M100.43,163.18c.09.63.65.87,1.25.53a2,2,0,0,0,.92-1.79c-.08-.64-.64-.87-1.24-.53A1.94,1.94,0,0,0,100.43,163.18Z" style="fill:#ebebeb"></path><path d="M92.81,155.81h0a.54.54,0,0,0-.42.06,1,1,0,0,0-.5,1,.4.4,0,0,0,.21.33h0l8.4,4.3,1.31-2.52Z" style="fill:#e0e0e0"></path><path d="M100.5,161.46l.45-.88c-2.68-1.08-7.2-3-8-3.39s-1-.76-.8-1.13a1,1,0,0,0-.27.77.4.4,0,0,0,.21.33h0Z" style="opacity:0.1"></path><path d="M100.1,160.84c.09.64.65.87,1.24.53a2,2,0,0,0,.93-1.79c-.09-.64-.64-.87-1.25-.52A1.92,1.92,0,0,0,100.1,160.84Z" style="fill:#ebebeb"></path><path d="M92.48,153.47h0a.49.49,0,0,0-.41.07,1,1,0,0,0-.5,1,.38.38,0,0,0,.21.32h0l8.4,4.29,1.31-2.52Z" style="fill:#e0e0e0"></path><path d="M100.17,159.12l.45-.88c-2.68-1.08-7.2-3-8-3.39s-1-.76-.8-1.13a1,1,0,0,0-.27.78.38.38,0,0,0,.21.32h0Z" style="opacity:0.1"></path><path d="M99.77,158.5c.09.64.64.87,1.24.53a2,2,0,0,0,.93-1.78c-.09-.64-.65-.88-1.25-.53A1.92,1.92,0,0,0,99.77,158.5Z" style="fill:#ebebeb"></path><path d="M92.14,151.13h0a.47.47,0,0,0-.42.06,1,1,0,0,0-.49,1,.38.38,0,0,0,.21.32h0l8.4,4.29,1.32-2.52Z" style="fill:#025FCC"></path><path d="M99.83,156.78l.46-.88c-2.68-1.08-7.2-3-8-3.39s-1-.76-.8-1.12a1,1,0,0,0-.27.77.38.38,0,0,0,.21.32h0Z" style="opacity:0.1"></path><path d="M99.43,156.16c.09.64.65.88,1.25.53a2,2,0,0,0,.93-1.78c-.09-.64-.65-.88-1.25-.53A1.94,1.94,0,0,0,99.43,156.16Z" style="fill:#025FCC"></path><path d="M99.43,156.16c.09.64.65.88,1.25.53a2,2,0,0,0,.93-1.78c-.09-.64-.65-.88-1.25-.53A1.94,1.94,0,0,0,99.43,156.16Z" style="fill:#fff;opacity:0.30000000000000004"></path><path d="M91.81,148.8h0a.51.51,0,0,0-.42.06,1.06,1.06,0,0,0-.5,1,.47.47,0,0,0,.21.33h0l8.4,4.29,1.31-2.52Z" style="fill:#025FCC"></path><path d="M99.5,154.44l.46-.87c-2.68-1.09-7.2-3-8-3.4s-1-.76-.8-1.12a1,1,0,0,0-.28.77.47.47,0,0,0,.21.33h0Z" style="opacity:0.1"></path><path d="M99.1,153.82c.09.64.65.88,1.25.53a1.94,1.94,0,0,0,.92-1.78c-.08-.64-.64-.88-1.24-.53A2,2,0,0,0,99.1,153.82Z" style="fill:#025FCC"></path><path d="M99.1,153.82c.09.64.65.88,1.25.53a1.94,1.94,0,0,0,.92-1.78c-.08-.64-.64-.88-1.24-.53A2,2,0,0,0,99.1,153.82Z" style="fill:#fff;opacity:0.30000000000000004"></path><path d="M91.48,146.46h0a.5.5,0,0,0-.42.06,1.06,1.06,0,0,0-.5,1,.42.42,0,0,0,.21.33h0l8.4,4.29,1.31-2.52Z" style="fill:#025FCC"></path><path d="M99.17,152.1l.46-.87c-2.69-1.09-7.21-3-8-3.39s-1-.77-.8-1.13a1,1,0,0,0-.27.77.42.42,0,0,0,.21.33h0Z" style="opacity:0.1"></path><path d="M98.77,151.48c.09.64.65.88,1.25.53a1.94,1.94,0,0,0,.92-1.78c-.08-.64-.64-.88-1.24-.53A1.93,1.93,0,0,0,98.77,151.48Z" style="fill:#025FCC"></path><path d="M98.77,151.48c.09.64.65.88,1.25.53a1.94,1.94,0,0,0,.92-1.78c-.08-.64-.64-.88-1.24-.53A1.93,1.93,0,0,0,98.77,151.48Z" style="fill:#fff;opacity:0.30000000000000004"></path><path d="M91.15,144.12h0a.5.5,0,0,0-.42.06,1,1,0,0,0-.5,1,.42.42,0,0,0,.21.33h0l8.4,4.3,1.31-2.53Z" style="fill:#e0e0e0"></path><path d="M98.84,149.77l.45-.88c-2.68-1.09-7.2-3-8-3.39s-1-.77-.8-1.13a1,1,0,0,0-.27.77.42.42,0,0,0,.21.33h0Z" style="opacity:0.1"></path><path d="M98.44,149.15a.76.76,0,0,0,1.24.53,2,2,0,0,0,.93-1.79c-.09-.64-.64-.87-1.25-.53A2,2,0,0,0,98.44,149.15Z" style="fill:#ebebeb"></path><path d="M90.82,141.78h0a.52.52,0,0,0-.41.06,1,1,0,0,0-.5,1,.42.42,0,0,0,.21.33h0l8.4,4.3,1.31-2.52Z" style="fill:#e0e0e0"></path><path d="M98.51,147.43l.45-.88c-2.68-1.08-7.2-3-8-3.39s-1-.77-.8-1.13a1,1,0,0,0-.27.77.42.42,0,0,0,.21.33h0Z" style="opacity:0.1"></path><path d="M98.11,146.81c.09.64.64.87,1.24.53a2,2,0,0,0,.93-1.79c-.09-.64-.65-.87-1.25-.53A2,2,0,0,0,98.11,146.81Z" style="fill:#ebebeb"></path><path d="M90.48,139.44h0a.51.51,0,0,0-.42.07,1,1,0,0,0-.49,1,.38.38,0,0,0,.21.32h0l8.4,4.3,1.32-2.52Z" style="fill:#e0e0e0"></path><path d="M98.17,145.09l.46-.88c-2.68-1.08-7.2-3-8-3.39s-1-.76-.8-1.13a1,1,0,0,0-.27.78.38.38,0,0,0,.21.32h0Z" style="opacity:0.1"></path><path d="M97.77,144.47c.09.64.65.87,1.25.53a2,2,0,0,0,.93-1.78c-.09-.64-.65-.88-1.25-.53A1.93,1.93,0,0,0,97.77,144.47Z" style="fill:#ebebeb"></path></g><path d="M131.44,205.62c.07,3.66-2.31,7.31-7.13,10.09-9.52,5.49-24.93,5.49-34.44,0-4.83-2.78-7.21-6.43-7.14-10.09H79.38s0,.1,0,.14V293.4c0,4.09,2.71,8.21,8.14,11.32,10.82,6.24,28.37,6.24,39.2,0,5.42-3.11,8.1-7.23,8.1-11.32V205.62Z" style="fill:#025FCC;opacity:0.30000000000000004"></path><path d="M87.46,217.09A20.2,20.2,0,0,0,90,218.36V306c-.4-.2-.8-.36-1.21-.57s-.9-.46-1.34-.7-.83-.5-1.24-.8-.8-.54-1.17-.81-.7-.57-1-.87-.63-.57-.94-.87V213.77A20.36,20.36,0,0,0,87.46,217.09Z" style="fill:#fff;opacity:0.15"></path><path d="M93.29,219.64a32,32,0,0,0,4,1.07v87.64c-.57-.1-1.11-.24-1.68-.37a23,23,0,0,1-2.31-.7Z" style="fill:#fff;opacity:0.15"></path><path d="M134.8,205.77v87.64c0,4.08-2.71,8.17-8.1,11.32a27.28,27.28,0,0,1-2.92,1.44c-.84.37-1.67.67-2.54,1s-1.48.51-2.25.71c-.94.26-1.88.47-2.85.67a47.15,47.15,0,0,1-18.86-.2v0c-.57-.1-1.11-.24-1.68-.37a23,23,0,0,1-2.31-.7A24.81,24.81,0,0,1,90,306c-.4-.2-.8-.36-1.21-.57s-.9-.46-1.34-.7-.83-.5-1.24-.8-.8-.54-1.17-.81-.7-.57-1-.87-.63-.57-.94-.87a3.87,3.87,0,0,1-.53-.54,6.11,6.11,0,0,0,.53.47A22,22,0,0,0,90,304.9a31.39,31.39,0,0,0,3.28.94c1.31.33,2.65.57,4,.77a40,40,0,0,0,12.8-.17c9.51-1.88,15.31-8,15.31-12.3V217.76c.43-.2.87-.44,1.31-.67a19.63,19.63,0,0,0,3.41-2.41C133.23,212,134.8,208.88,134.8,205.77Z" style="fill:#025FCC;opacity:0.2"></path><path d="M134.8,205.77v87.64c0,4.08-2.71,8.17-8.1,11.32a27.28,27.28,0,0,1-2.92,1.44c-.84.37-1.67.67-2.54,1s-1.48.51-2.25.71c-.94.26-1.88.47-2.85.67,10.42-2.82,14-9.95,14-13.14v-80.7C133.23,212,134.8,208.88,134.8,205.77Z" style="opacity:0.15"></path></g></g><g id="freepik--Character--inject-5"><g id="freepik--character--inject-5"><g id="freepik--Bottom--inject-5"><path d="M409.09,299.59l1.51-14-16.19,1.06s.25,7.59.47,11.89c.14,2.54-3.32,7.25-3.32,7.25s7.6,4,11.68,2.62,6.23-6.42,6.17-7.51S409.09,299.59,409.09,299.59Z" style="fill:#ffa8a7"></path><path d="M370.09,321.44c-.26,0-.69,2.59.68,3.72,1.58,1.31,6.25,3.49,12.48,2.85s9.62-2.36,12.13-4.25,6.05-4.53,8.87-5.06c2.62-.49,5.47-1.54,6.32-2.27s.79-4.05.79-4.05Z" style="fill:#263238"></path><path d="M409.09,299.56a1,1,0,0,1,.93.8c.17.91.34,3.58.72,5.09a24.73,24.73,0,0,1,.48,8.07c-.37,1.69-4.65,2.8-7.38,3.72a35.29,35.29,0,0,0-8.9,5c-2.95,2.18-9.13,4.4-13.18,4.3-4.79-.11-10.16-1.64-11.36-3.72-1.49-2.56-2.56-5.54,4.6-8.46,1.35-.56,6.12-3.06,7.74-4,4.4-2.47,7.5-4.74,9.58-9.2a2.52,2.52,0,0,1,1-1.35,2.42,2.42,0,0,1,1.39-.09,48.64,48.64,0,0,1,7,1.35c1,.43,2.29.94,2.25,2.07a3.3,3.3,0,0,1-.29,1.15c-.09.23-.16.53.06.67s.48,0,.67-.16a17.55,17.55,0,0,0,2-2.09,6.27,6.27,0,0,1,1.14-1,12.31,12.31,0,0,0,1.23-.71C409.15,300.59,409.06,300.09,409.09,299.56Z" style="fill:#455a64"></path><path d="M394.94,322.23c1.26-.92,2.59-1.81,3.92-2.61h0s-8.43,4.56-11.77,2.37c-2.15-1.41-1.09-3.07-1-3.6s-7.55-4.43-9.66-4.7h0c-.59.3-1.09.53-1.4.66-7.16,2.92-6.09,5.9-4.6,8.46,1.2,2.08,5.08,3.75,11.27,3.85C385.72,326.73,392,324.41,394.94,322.23Z" style="fill:#37474f"></path><path d="M386.67,316.85c-4.44,1.55-2.57,2.35-1.34,2.53s8.74-3.7,13.33-6.95c4.79-3.38,7.83-7.11,9.61-8.35.66-.47,1.38-1,2-1.57-.1-.9-.18-1.72-.26-2.15a1,1,0,0,0-.93-.8c0,.53.06,1-.37,1.42a12.31,12.31,0,0,1-1.23.71,6.27,6.27,0,0,0-1.14,1,17.55,17.55,0,0,1-2,2.09C400.46,309.29,391.12,315.29,386.67,316.85Z" style="fill:#37474f"></path><path d="M385.66,318.79a.49.49,0,0,0,.28-.09.39.39,0,0,0,.07-.57c-1.23-1.43-7.08-4.88-10.34-4.61a.41.41,0,1,0,.08.81c3-.25,8.6,3.17,9.57,4.3A.46.46,0,0,0,385.66,318.79Z" style="fill:#263238"></path><path d="M389.55,316.66a.46.46,0,0,0,.27-.09.38.38,0,0,0,.08-.56c-1.23-1.44-7.08-4.89-10.34-4.61a.4.4,0,0,0-.39.44.42.42,0,0,0,.47.36c3-.24,8.6,3.17,9.57,4.31A.43.43,0,0,0,389.55,316.66Z" style="fill:#263238"></path><path d="M393.44,314.65a.46.46,0,0,0,.27-.09.39.39,0,0,0,.07-.57c-1.22-1.43-7.07-4.88-10.33-4.61a.41.41,0,0,0-.39.44.42.42,0,0,0,.47.37c3-.25,8.6,3.17,9.57,4.3A.44.44,0,0,0,393.44,314.65Z" style="fill:#263238"></path><path d="M397.05,312.33a.39.39,0,0,0,.27-.08.39.39,0,0,0,.07-.57c-1.22-1.43-7.09-4.88-10.33-4.61a.41.41,0,0,0-.39.44.42.42,0,0,0,.47.37c3-.25,8.6,3.16,9.57,4.3A.43.43,0,0,0,397.05,312.33Z" style="fill:#263238"></path><path d="M400.58,310a.48.48,0,0,0,.28-.08.39.39,0,0,0,.08-.57c-1.68-2-7.83-4.93-11.08-4.66a.42.42,0,0,0-.4.44.45.45,0,0,0,.48.37c2.93-.25,8.81,2.54,10.3,4.34A.46.46,0,0,0,400.58,310Z" style="fill:#263238"></path><path d="M441.1,307.22,437.41,294l16.48-2.53.74,12.83s1.75,4.57.75,6.26-12,3.6-13,2.5S441.1,307.22,441.1,307.22Z" style="fill:#ffa8a7"></path><path d="M442.8,336.11c.53,4.11,1.44,6.76,3.27,9s5,2.54,8.2,1.39,7.13-3.59,7.82-7.29.35-6.12-.62-9.87Z" style="fill:#263238"></path><path d="M454.63,304.27c1.32-.09,1.06,5.55,2.18,11,1.19,5.86,3.38,8,4.42,12.85,1.19,5.47,1,8-1,11.7s-9.71,8.07-13.91,3.75c-3.43-3.52-3.84-7.88-3.91-13.5a122.15,122.15,0,0,0-.61-14.25c-.52-4.15-1.79-7.84-.68-8.46.13.6.26,1.37.4,2s.37,2.71,1.11,2.63a7.61,7.61,0,0,0-.08-1.58,1.75,1.75,0,0,1,.27-1.4,6.11,6.11,0,0,1,2.12-1.1c1.28-.4,3.58-.91,4.89-1.19.65-.14,1.31-.26,2-.34a5.92,5.92,0,0,1,1.68,0,1,1,0,0,1,.75.47,1.5,1.5,0,0,1,.11.63,4.29,4.29,0,0,0,.24,1.13c.06.16.2.34.39.28a.36.36,0,0,0,.19-.37c0-.68-.16-1.15-.25-1.93,0-.36-.14-.85-.17-1.21S454.68,304.62,454.63,304.27Z" style="fill:#455a64"></path><path d="M460.83,326.59c.18.78,1.29,6-.3,7.21s-3-2.79-3-2.79-4.28-.56-10.26,2.62c.37.82-.39,3.81-2.11,3.43s-2.75-6.41-2.77-6.49c.09,5.39.57,9.6,3.9,13,4.2,4.32,11.89-.07,13.91-3.75s2.2-6.23,1-11.7C461.11,327.59,461,327.08,460.83,326.59Z" style="fill:#37474f"></path><path d="M457.09,331.44c.16,2,2.39,1,2.31-1.84s-2.3-9.4-2.59-14.31c-.48-6.75-.86-11.11-2.18-11,0,.07,0,.13,0,.2l.35,2.81a8.94,8.94,0,0,1,.15,1.2c.3,4.12.46,12.12,1.11,15.84A57,57,0,0,1,457.09,331.44Z" style="fill:#37474f"></path><path d="M448,333.48a56.73,56.73,0,0,1-1.71-6.92c-.69-3.68-3-11-4.18-15a8.47,8.47,0,0,1-.6-2.24c-.13-.55-.25-1.25-.37-1.83,0,0,0-.08,0-.12-.8.46-.48,3.65,0,5.3s1,3.41,1.57,5.77c1.43,4.66,1.66,11.68,2.58,14.36S448.56,335.41,448,333.48Z" style="fill:#37474f"></path><path d="M447.17,333.81a.56.56,0,0,0,.18-.07,18.29,18.29,0,0,1,10.1-2.29.55.55,0,0,0,.58-.39.4.4,0,0,0-.38-.48,19.2,19.2,0,0,0-10.8,2.46.43.43,0,0,0-.17.61A.46.46,0,0,0,447.17,333.81Z" style="fill:#263238"></path><path d="M445.8,329.57l.16-.06a22.55,22.55,0,0,1,11.3-2.56.56.56,0,0,0,.57-.41.4.4,0,0,0-.4-.46,23.62,23.62,0,0,0-11.95,2.71.44.44,0,0,0-.19.61A.48.48,0,0,0,445.8,329.57Z" style="fill:#263238"></path><path d="M456.68,322.82a.55.55,0,0,0,.4-.34.41.41,0,0,0-.35-.51c-6-1-11.69,2.47-11.93,2.62a.41.41,0,0,0-.17.6.51.51,0,0,0,.67.1c.05,0,5.57-3.36,11.17-2.46A.5.5,0,0,0,456.68,322.82Z" style="fill:#263238"></path><path d="M456.09,318.94a.52.52,0,0,0,.39-.34.39.39,0,0,0-.33-.51A17.72,17.72,0,0,0,444,320.71a.41.41,0,0,0-.12.61.53.53,0,0,0,.68.05,16.9,16.9,0,0,1,11.34-2.43A.54.54,0,0,0,456.09,318.94Z" style="fill:#263238"></path><path d="M455.41,314.58a.55.55,0,0,0,.39-.33.39.39,0,0,0-.32-.52c-6.22-1.18-12,2.58-12.26,2.75a.41.41,0,0,0-.14.61.5.5,0,0,0,.67.06c.06,0,5.66-3.66,11.44-2.57A.54.54,0,0,0,455.41,314.58Z" style="fill:#263238"></path><path d="M444.55,167.28c3.1,32.49,4.53,77,4.53,77,.27,2.47,2.06,6.67,3.45,18.84,1.47,12.84,1.51,31,1.51,31s-8.64,5-15.87,2.66c0,0-7.18-28.43-11.13-43.52-3.74-14.28-9-36-9-36l-2.93,22.94s-.31,8-.46,14.46c-.19,7.55-4.46,36.51-4.46,36.51s-8.52,5.67-16.08,0c0,0-2.24-42.33-2.61-51.4-.73-17.81-.6-52.37-.36-75.37Z" style="fill:#025FCC"></path><path d="M444.55,167.28c3.1,32.49,4.53,77,4.53,77,.27,2.47,2.06,6.67,3.45,18.84,1.47,12.84,1.51,31,1.51,31s-8.64,5-15.87,2.66c0,0-7.18-28.43-11.13-43.52-3.74-14.28-9-36-9-36l-2.93,22.94s-.31,8-.46,14.46c-.19,7.55-4.46,36.51-4.46,36.51s-8.52,5.67-16.08,0c0,0-2.24-42.33-2.61-51.4-.73-17.81-.6-52.37-.36-75.37Z" style="fill:#fff;opacity:0.5"></path><path d="M418,217.24l-4.1-23.09S405.21,193,400.67,189c0,0,3,5.33,11.22,7.28l4.05,21-.84,22.85Z" style="fill:#025FCC;opacity:0.30000000000000004"></path><path d="M454.25,294.5c-1.76,2.45-9.72,5-16.19,2.91l-1.2-5c4.88,1.47,13.29-.15,17.2-3.38Z" style="fill:#025FCC"></path><path d="M410.23,291.92C408.08,294,400,295.18,394,292l-.33-5.13c4.56,2.31,12.88,2.3,17.28-.19Z" style="fill:#025FCC"></path></g><g id="freepik--Top--inject-5"><path d="M338,140.86c2.36,1.34,4.94,3.59,9,6s12.53,7.67,18.23,10,8,2.8,13.95-4.57c7.84-9.68,15.8-21.49,15.8-21.49l5.17-24.46c-9.81.7-12,3.34-16.81,10.51-6.7,10-14.71,22.19-14.71,22.19s-20.77-6.83-23-8a8.32,8.32,0,0,1-3.8-3.92,38,38,0,0,0-2.22-4.12c-.85-1.42-1.17-2-2.18-3.75s-2-4.91-2.36-5.58c-.56-.73-1.74-.49-2.46,1.61a7.79,7.79,0,0,0,.12,3.92c.23,1.15.79,2.52.47,2.76s-2.11-.36-3.83-.51-3.31-.66-5.07.17a2.2,2.2,0,0,0-1.09,3.11,2.85,2.85,0,0,0,1.15,1,2.36,2.36,0,0,0-1.69.81,2.56,2.56,0,0,0,.43,3.23,1.47,1.47,0,0,0-1.23,1.49c0,1.12.24,2.18,1.39,2.45,0,0-.87.34-.85.88a2.61,2.61,0,0,0,1.2,2.28,8.56,8.56,0,0,0,3.24.28s.22.37,1.34.76a26.66,26.66,0,0,0,3.75,1.37C333.4,139.59,336.13,139.8,338,140.86Z" style="fill:#ffa8a7"></path><path d="M368.63,139c2.49,1.06,3.46,4.43,4.69,8-.22-4.76-1.53-8.07-4.15-9.23Z" style="fill:#f28f8f"></path><path d="M394.46,134.18l7.2-31.57c-5.59.49-12.15,4.2-16,10-7.76,11.72-17.09,25.94-17.09,25.94-.29-.11-20.18-6.32-20.18-6.32s1,3,.27,8.38-2.61,7-2.61,7,12.6,6.93,16.67,8.79c6.59,3,9.36,2.94,10.33,2.59,1.85-.66,4-2.33,7.95-7.21C386.28,145.16,394.46,134.18,394.46,134.18Z" style="fill:#ebebeb"></path><path d="M394.46,134.18l3.36-14.56,3.64-17.06.21.25a21.86,21.86,0,0,0-11.36,4.87,23.77,23.77,0,0,0-4.64,5.33l-3.37,5.14-13.49,20.59-.12.19-.24-.07L348.3,132.5l.33-.34a16.42,16.42,0,0,1,.54,4,28.5,28.5,0,0,1-.23,4,21.5,21.5,0,0,1-.82,3.95,8.92,8.92,0,0,1-1.94,3.6l0-.37c4.58,2.52,9.16,5,13.8,7.42a54,54,0,0,0,7.14,3.15,20.41,20.41,0,0,0,3.75.95,6,6,0,0,0,1.9,0,7.07,7.07,0,0,0,1.73-.79,27.12,27.12,0,0,0,5.6-5.37c1.67-2,3.27-4.07,4.88-6.12Q389.76,140.45,394.46,134.18Zm0,0q-4.66,6.3-9.42,12.52c-1.59,2.07-3.18,4.14-4.83,6.18a27.19,27.19,0,0,1-5.59,5.49,6.56,6.56,0,0,1-1.82.84,6.17,6.17,0,0,1-2,0,21,21,0,0,1-3.83-.94,54.7,54.7,0,0,1-7.19-3.14c-4.66-2.38-9.25-4.87-13.84-7.36l-.26-.15.22-.23a8.48,8.48,0,0,0,1.78-3.39,22,22,0,0,0,.79-3.87,27.5,27.5,0,0,0,.19-3.95,15.59,15.59,0,0,0-.53-3.88l-.14-.49.48.15,20.2,6.29-.36.12,13.59-20.52,3.4-5.13a22.34,22.34,0,0,1,4.62-5.3,23.17,23.17,0,0,1,11.73-5l.28,0-.07.28-3.75,17Z" style="fill:#e0e0e0"></path><path d="M329.45,134.14a.92.92,0,0,1-.11.82,8,8,0,0,1-.67.89,3.7,3.7,0,0,1-.37.42,1.7,1.7,0,0,1-.42.31l-1,.54a4.25,4.25,0,0,0,1.15-.26,1.59,1.59,0,0,0,.55-.31c.15-.14.29-.28.43-.43a5,5,0,0,0,.64-1,1.26,1.26,0,0,0,.07-.64.69.69,0,0,0-.18-.35,6.59,6.59,0,0,0,.83-.46,2.89,2.89,0,0,0,1.09-1,2.23,2.23,0,0,0,.15-.75,1,1,0,0,0,0-.24l.26-.54a6.55,6.55,0,0,0,1.94,2.39,7.74,7.74,0,0,0,3.41,1.59,6.71,6.71,0,0,1-4.36-7.78l.07,0a1,1,0,0,0,.29-.48,1.35,1.35,0,0,0-.11-1,2.65,2.65,0,0,0-.58-.78,5.46,5.46,0,0,0-3.4-1.35,2.43,2.43,0,0,0-.55-.6,4.1,4.1,0,0,0-.71-.46,5.56,5.56,0,0,1,.65.53,2.53,2.53,0,0,1,.49.65l0,0h0a5.7,5.7,0,0,1,3.2,1.43,1.57,1.57,0,0,1,.57,1.44c-.1.28-.19.37-.48.37s-.6,0-.91,0c-.63,0-1.23.07-1.83.09a7,7,0,0,1-1.77-.2c-.59-.14-1.16-.34-1.74-.53a13,13,0,0,1-1.7-.67,15.09,15.09,0,0,0,3.36,1.49,6.47,6.47,0,0,0,1.85.27c.63,0,1.23-.07,1.83-.06l.36,0a1.11,1.11,0,0,1,.49.64,1.24,1.24,0,0,1-.44,1.29,7.16,7.16,0,0,1-1.21.94,4.22,4.22,0,0,1-1.38.54,10.54,10.54,0,0,1-3-.47c-1-.22-2.05-.44-3.09-.62,1,.35,2,.64,3,.93.51.15,1,.28,1.53.41a4.89,4.89,0,0,0,1.63.16,5.21,5.21,0,0,0,1-.34,1.5,1.5,0,0,1,.88.4.72.72,0,0,1,.21.56,1.83,1.83,0,0,1-.17.63,3.15,3.15,0,0,1-1,.84,2.88,2.88,0,0,1-1.22.52,5.38,5.38,0,0,1-1.35-.2,7.9,7.9,0,0,0-1.45-.09c-.95,0-1.9,0-2.86.12,1,.08,1.91.13,2.85.19a12.76,12.76,0,0,1,1.4.15,5.23,5.23,0,0,0,1.45.24A2.41,2.41,0,0,0,329.45,134.14Zm2.54-6.7,0,0h0Z" style="fill:#f28f8f"></path><path id="freepik--Chest--inject-5" d="M428.89,100.69c3.24.67,7.36,1.51,11.49,2.66s6.88,1.88,10.61,4a168.1,168.1,0,0,1-3.14,30c-.71,3.29-3.1,12.37-3.51,19.34a111.38,111.38,0,0,0,.58,21.72s-10.73,8-33.65,6.23c-18-1.35-20.34-8-20.34-8s.33-30,.8-43.27c.61-17.44,5.89-27.5,9.78-30.54l11.81-2Z" style="fill:#025FCC"></path><path d="M412.92,99.48v1.42a18.93,18.93,0,0,0-9.59,10.18c-2.51,6.3-5.3,20.82-5.91,37.66-1.24,34.14-1.92,61.15-1.92,61.15a21.45,21.45,0,0,1-7.57-1.07s.37-25.89,1-44.58c.72-22.3,2.16-37.14,3.62-46.21,1.59-9.92,5.86-13.49,8.36-15.43C405,101.49,410.42,100.18,412.92,99.48Z" style="fill:#f0f0f0"></path><path d="M388.91,164.24l.15-8.05c.09-2.69.19-5.37.32-8.05q.39-8.05,1.12-16.08c.26-2.67.55-5.34.89-8s.68-5.32,1.26-8a26.89,26.89,0,0,1,2.82-7.57,18.92,18.92,0,0,1,5.42-5.91,18.76,18.76,0,0,0-5.15,6.06,26.67,26.67,0,0,0-2.62,7.52c-.94,5.26-1.51,10.61-2,15.94s-.9,10.69-1.26,16l-.5,8Z" style="fill:#e0e0e0"></path><g id="freepik--Head--inject-5"><path d="M432.89,64.67s2.68.2,4.44,3.58c.88,1.7,1.51,4.8-.91,13.65a35.41,35.41,0,0,1-4.26,9.78,4.4,4.4,0,0,1-2.54,2l.18-6.81.25-4.74s-3.82-3.48-4.15-6.88a10.88,10.88,0,0,1,1.29-6.88Z" style="fill:#37474f"></path><path d="M433.81,64.89c-.66-3.82-5.51-8.39-14.88-8.89-7.67-.41-12,3.62-14.66,8.09a9,9,0,0,0-.45,8.52l23.48-1.22Z" style="fill:#37474f"></path><path d="M436,88.89c-3.53,1.72-5.14-1.07-5.14-1.07l0,14.36c-6.77,9.06-25.4,5.46-18-1.33l0-3.2a21.4,21.4,0,0,1-3.06-.3,6.6,6.6,0,0,1-6-5.33,44.08,44.08,0,0,1-1.06-7.09c-.21-3.55-.24-6.82.64-9.28.63-1.74-.1-4,.37-6.18.37-1.65,1.08-3.44,2.59-4.19,3.74-1.85,7.21.82,12.43,2.86,2.16.84,7.41,1.21,8.79.56-1.82,2-1.8,8.37.88,10.94a6,6,0,0,0,1.34,1.76c1.15,1,2.08-1.57,3-2.58A3.94,3.94,0,0,1,439,80.23,6.4,6.4,0,0,1,436,88.89Z" style="fill:#ffa8a7"></path><path d="M412.94,97.65a28.22,28.22,0,0,0,10.15-1.55c2.42-1,4.56-4.29,5.26-7.53,0,2.61-1.14,7.24-4.81,9.16s-7.93,2-10.61,2.09Z" style="fill:#f28f8f"></path><path d="M419.22,72.48l3.46,1.46a2,2,0,0,0-1-2.52A1.82,1.82,0,0,0,419.22,72.48Z" style="fill:#37474f"></path><path d="M405.2,73.12l3.52-1.4a1.82,1.82,0,0,0-2.4-1.1A2,2,0,0,0,405.2,73.12Z" style="fill:#37474f"></path><path d="M420.75,76.65a1.53,1.53,0,1,1-1.48-1.59A1.53,1.53,0,0,1,420.75,76.65Z" style="fill:#263238"></path><path d="M408.77,76.32a1.53,1.53,0,1,1-1.47-1.59A1.53,1.53,0,0,1,408.77,76.32Z" style="fill:#263238"></path><path d="M414.76,73.33l-1.27,9.75-5.14-1.9A22.87,22.87,0,0,1,414.76,73.33Z" style="fill:#f28f8f"></path><path d="M415.62,86.13l-4,1.32a2,2,0,0,0,2.61,1.4A2.2,2.2,0,0,0,415.62,86.13Z" style="fill:#b16668"></path><path d="M415.2,86.85a2.21,2.21,0,0,1,.51,0,2.16,2.16,0,0,1-1.46,2,1.89,1.89,0,0,1-.66.1A1.91,1.91,0,0,1,415.2,86.85Z" style="fill:#f28f8f"></path></g><path d="M430.91,98.94v3.24s-1.19,5.5-2.06,10c-1.52,7.88-1.52,18.71-1.58,26.47s3.42,72.24,3.42,72.24,12.74-.09,18.88-2.93c-.21-6.59-1.81-28.5-2.85-44.55-.48-7.47,2.65-18.11,3.59-29.95,1.08-13.57,1.07-26.25,1.07-26.25a97.66,97.66,0,0,0-14.59-5.28C432.75,99.9,430.91,98.94,430.91,98.94Z" style="fill:#f0f0f0"></path><g id="freepik--Mask--inject-5"><path d="M411.14,78.54c.75.13,1.57.8,3.47,1.48,3,1.08,7.26,1.22,9.52,2.67s4.34,5.15,2.89,8.51-3.13,4.87-5.57,5.74a32.3,32.3,0,0,1-10,1.38,9.39,9.39,0,0,1-6.67-3.09c-2.27-2.27-3.06-7.71-2.87-11.37s.23-3.8,1.68-3.89a27.22,27.22,0,0,0,5.61-1.19A3.7,3.7,0,0,1,411.14,78.54Z" style="fill:#37474f"></path><path d="M424.13,82.69c-2.26-1.45-6.48-1.59-9.52-2.67-1.9-.68-2.72-1.35-3.47-1.48a3.7,3.7,0,0,0-1.93.24A27.22,27.22,0,0,1,403.6,80c-1,.07-1.34.15-1.52,1.52.16-.58.17-.79,2.16-1a23.78,23.78,0,0,0,4.87-1.08,2.54,2.54,0,0,1,2.32.25,28.23,28.23,0,0,0,6.11,1.76c3.17.6,6,.8,7.9,3.23a7.07,7.07,0,0,1,.34,8c-1.51,2.2-2.23,3.28-5.89,4.4a37.15,37.15,0,0,1-8.43,1.28,32.3,32.3,0,0,0,10-1.38c2.44-.87,4.07-2.27,5.57-5.74S426.36,84.11,424.13,82.69Z" style="fill:#263238"></path><path d="M407,89.32c.1-2.29,0-4.95.8-6,.71-1.41,2.05-3.32,2.48-4l.36-.79-.32,0h-.05l-.39.07-.12,0-.52.15A27.22,27.22,0,0,1,403.6,80c-1.45.09-1.5.28-1.68,3.89s.6,9.1,2.87,11.37a9.2,9.2,0,0,0,3.66,2.49C406.73,96.42,406.87,91.64,407,89.32Z" style="opacity:0.15"></path><path d="M421.49,93.75c2.18-.25,4.28-1.78,6.16-2.86L430.87,89l0-.72-3.56,2c-1.83,1-3.85,2.61-5.91,2.84Z" style="fill:#fafafa"></path><path d="M420.73,94l1.15-.19c.19,0,.36-.16.36-.29v-.27c0-.13-.14-.21-.34-.17l-1.15.18c-.2,0-.36.16-.37.29v.27C420.37,93.91,420.53,94,420.73,94Z" style="fill:#e0e0e0"></path><path d="M422.88,86.53c2.17-.26,6.52-4.22,7.82-5a1.53,1.53,0,0,0,.69-.61c-2.32,0-6,4.87-8.59,5Z" style="fill:#fafafa"></path><path d="M422.29,86.69l1.07-.14a.36.36,0,0,0,.34-.27V86c0-.13-.13-.21-.31-.19l-1.07.13a.37.37,0,0,0-.35.28l0,.26C422,86.62,422.1,86.71,422.29,86.69Z" style="fill:#e0e0e0"></path></g></g><g id="freepik--Arm--inject-5"><g id="freepik--arm--inject-5"><path d="M444.48,195a3.5,3.5,0,0,0-.66.83.87.87,0,0,0,.1,1,1.05,1.05,0,0,0,.45.22,3.88,3.88,0,0,0,3.14-.62,8.91,8.91,0,0,0,2.26-2.36,2.27,2.27,0,0,1,.78-.79c1.48-.72.76,1.76.65,2.34a25.19,25.19,0,0,1-1.4,4.8c-.37,1.21-3.38,4-4.07,5.12s-.66,2.43-.11,2.94,1.72-.26,3.17-1.68a30.38,30.38,0,0,0,3-3l1.12-1.63a17.64,17.64,0,0,1-1.17,2.93c-.52.82-2.52,2.88-3.14,3.91a2.26,2.26,0,0,0,.24,2.56c.36.39.55,1,2.46-1a31,31,0,0,0,2.67-3,2.81,2.81,0,0,0,2.79-.9,28.52,28.52,0,0,0,3-4.33,4,4,0,0,0,2.38-2c.77-1.61,1.78-4.17,2.53-6.24s.3-7.31.69-10.95c.11-1.11,1.19-13.69,1.7-21.52.38-5.86.06-12.54-.64-15.56-1.65-7.13-1.54-6.24-4.15-16.1-1.69-6.37-3.06-10.93-4.19-14-1.72-4.71-2.82-6.81-9.58-9.26-3.72,3-5.09,10.33-2.71,24.3a136.5,136.5,0,0,0,6.84,19.43s1,30.41,1,30.95a2.92,2.92,0,0,1-1.18,2.52c-.79.69-1.7,1.25-2.46,2-2.49,2.39-3,6.27-5.29,8.83Z" style="fill:#ffa8a7"></path><path d="M454,207.62a18.85,18.85,0,0,0,2.73-4.26,22.62,22.62,0,0,0,1.65-4.79c-.61,1.58-1.22,3.14-2,4.64A37,37,0,0,1,454,207.62Z" style="fill:#f28f8f"></path><path d="M459.74,202.39A9,9,0,0,0,461,200.2a11.8,11.8,0,0,0,.74-2.41c-.4.74-.71,1.52-1,2.28Z" style="fill:#f28f8f"></path><path d="M452.92,202.14a23,23,0,0,0,2.08-3.85,9.2,9.2,0,0,1-2.55,5.23Z" style="fill:#f28f8f"></path></g><path d="M448.33,105.86c6.93,2.8,8.16,3.78,9.69,6.23,1.86,3,2.73,6.53,6.08,18.08s4.44,16.56,4.53,19a67.73,67.73,0,0,1-.76,13.72c-.62,4.94-1.46,11.06-2.38,18.59-3.43,1.33-11.08-.07-12.77-2.31,0-5.1-.19-9.47-.28-15.23-.11-7.18-.48-12.77-.48-12.77l-7.19-21.57S440.91,111.45,448.33,105.86Z" style="fill:#ebebeb"></path><path d="M462.05,182.32c-3.73,0-8.29-1.23-9.58-2.95l-.06-.08v-.1c0-3.06-.07-5.87-.14-8.85,0-2-.1-4.07-.14-6.38-.1-6.77-.45-12.2-.48-12.71l-7.17-21.54c-.17-.78-3.83-18.46,3.66-24.1l.14-.11.17.07c6.93,2.81,8.25,3.82,9.83,6.35s2.52,5.68,4.88,13.88c.38,1.3.79,2.72,1.24,4.28,3.08,10.62,4.44,16.33,4.54,19.1a68.59,68.59,0,0,1-.76,13.77c-.23,1.82-.49,3.8-.77,6-.48,3.69-1,7.88-1.61,12.63l0,.19-.18.06A10.06,10.06,0,0,1,462.05,182.32Zm-9-3.24c1.69,2,8.85,3.34,12.16,2.2.58-4.68,1.12-8.8,1.59-12.45.28-2.16.54-4.14.77-6a67.55,67.55,0,0,0,.76-13.67c-.1-2.71-1.45-8.38-4.52-18.94L462.57,126c-2.35-8.14-3.23-11.19-4.82-13.73-1.48-2.37-2.75-3.35-9.37-6-7,5.53-3.34,23.16-3.3,23.34l7.19,21.62c0,.05.38,5.68.48,12.78,0,2.3.09,4.38.14,6.38C453,173.27,453,176.06,453,179.08Z" style="fill:#e0e0e0"></path></g></g></g><g id="freepik--speech-bubble-2--inject-5"><g id="freepik--Shield--inject-5"><g id="freepik--Bubble--inject-5"><path d="M341.1,53.81h0L346,51h0c.19-.11.47,0,.81.22a5.3,5.3,0,0,0,.54.39,1.37,1.37,0,0,0,.2.13l.35.23.26.14.32.18.29.14.29.14.33.14.27.12L350,53l.25.09.39.11.22.07.42.1.2,0,.44.09.18,0,.46.07h.15l.49,0h.13l.5,0h.71l.55,0h.05l.56-.08h0l.47-.09a1.64,1.64,0,0,1,.33-.28h0l.06,0h0l4.77-2.76h0c.4-.22.77-.06,1,.52,3.12,7.76,9.78,15.62,14.21,17.59l.26.13.15.11.07,0a1.54,1.54,0,0,1,.19.17h0a1.62,1.62,0,0,1,.18.19h0a1.87,1.87,0,0,1,.5,1.27l-.64,17.42c0,5.08-2.16,10.44-6.57,13h0l-4.85,2.79h0l-.06,0h0a12.08,12.08,0,0,1-7.35,1.44,4.72,4.72,0,0,1-2.53-1.26c-9.7-10-14.41-23.57-14.41-31.07l-.64-18.22C340.83,54.15,340.93,53.91,341.1,53.81Z" style="fill:#025FCC"></path><path d="M366,103.56l4.72-2.72h0c4.4-2.57,6.57-7.93,6.57-13l.64-17.42a2,2,0,0,0-.79-1.56,4,4,0,0,1,.29.29l-4.84,2.8a1.85,1.85,0,0,1,.5,1.26l-.64,17.43C372.42,95.66,370.29,101,366,103.56Z" style="opacity:0.15"></path><path d="M341.11,53.81c.19-.1.47,0,.8.23,4.36,3.33,10.87,3.33,14.18-.52l.06-.07a11.77,11.77,0,0,1-9.39-2.2c-.34-.27-.62-.34-.81-.23h0Z" style="fill:#fff;opacity:0.30000000000000004"></path><path d="M356.55,53.14h0c.37-.18.71,0,.93.54,3.12,7.76,9.77,15.63,14.21,17.59a2.45,2.45,0,0,1,.87.66l4.84-2.8a4,4,0,0,0-.29-.29l-.11-.08-.11-.09-.12-.07c-.08,0-.16-.09-.24-.12-4.43-2-11.09-9.83-14.21-17.59-.17-.41-.4-.61-.67-.61a.75.75,0,0,0-.33.09Z" style="fill:#fff;opacity:0.5"></path><path d="M377.5,81.41l-4.85,2.79-.53,7s5.57,1.91,9.65-.48h0l5-2.92A7.24,7.24,0,0,0,388,87C385,87.79,379.45,84.76,377.5,81.41Z" style="fill:#025FCC"></path><path d="M377.5,81.41l-4.84,2.79c1.95,3.36,7.5,6.38,10.46,5.58a7.35,7.35,0,0,1-1.33,1l5-2.92A7.24,7.24,0,0,0,388,87C385,87.79,379.45,84.77,377.5,81.41Z" style="fill:#fff;opacity:0.5"></path><path d="M388,87a7.24,7.24,0,0,1-1.15.87l-5,2.92a7.35,7.35,0,0,0,1.33-1Z" style="fill:#025FCC"></path><path d="M388,87a7.24,7.24,0,0,1-1.15.87l-5,2.92a7.35,7.35,0,0,0,1.33-1Z" style="opacity:0.15"></path></g><path id="freepik--Tooth--inject-5" d="M357.19,83.85c-1.3-.75-2.12.17-2.46,1.82a27.14,27.14,0,0,0-.29,5.08c0,1-.81,1.08-1.68-.58A18,18,0,0,1,351,83.69c-.31-3.35.09-4.31-.23-6.39-.35-2.23-1.39-4.58-1.39-7.21s1-5.13,3.36-4.38,3.18,2.83,4.43,3.56,2.06-.43,4.43,1.56S365,76.46,365,79.09s-1,3.77-1.39,5.6.09,3.14-.23,6.12c-.24,2.25-.87,3.82-1.74,4.48s-1.71-.38-1.68-1.36a31.14,31.14,0,0,0-.29-5.41C359.31,86.46,358.49,84.6,357.19,83.85Z" style="fill:#fff"></path></g></g><g id="freepik--speech-bubble-1--inject-5"><g id="freepik--speech-bubble--inject-5"><g id="freepik--speech-bubble--inject-5"><path d="M303.34,104.92a24.48,24.48,0,0,1-6.86,16.67l-2.06,1.91a24.53,24.53,0,0,1-34.11-35l2-2a24.53,24.53,0,0,1,41.07,18.46Z" style="fill:#fff"></path><path d="M278.79,78a26.63,26.63,0,0,0-4.42,52.89l3,7.71a1.55,1.55,0,0,0,2.89,0l3-7.72A26.63,26.63,0,0,0,278.79,78Zm24.56,26.63a24.49,24.49,0,0,1-6.64,16.76l-2,1.94A24.53,24.53,0,0,1,260.1,88.74l1.93-2a24.53,24.53,0,0,1,41.32,17.9Z" style="fill:#455a64"></path></g><g id="freepik--Check--inject-5"><path d="M274,120.38a3.85,3.85,0,0,1-2.81-1.22l-8.72-9.32a3.85,3.85,0,1,1,5.62-5.26l5.66,6,13.41-17a3.85,3.85,0,1,1,6,4.77l-16.18,20.49a3.82,3.82,0,0,1-2.86,1.46Z" style="fill:#025FCC"></path></g></g></g><g id="freepik--Clipboard--inject-5"><g id="freepik--clipboard--inject-5"><g id="freepik--Board--inject-5"><g id="freepik--Window--inject-5"><path d="M409.64,370.09,278.48,445.91a5.44,5.44,0,0,1-4.91,0l-173.4-100.1a5.37,5.37,0,0,1-2.44-4.25V341a5.46,5.46,0,0,1,2.46-4.25L231.44,261a5.44,5.44,0,0,1,4.91,0L409.66,361a5.41,5.41,0,0,1,2.45,4.25v.58A5.45,5.45,0,0,1,409.64,370.09Z" style="fill:#025FCC"></path><path d="M409.64,370.09,278.48,445.91a5.44,5.44,0,0,1-4.91,0l-173.4-100.1a5.37,5.37,0,0,1-2.44-4.25V341a5.46,5.46,0,0,1,2.46-4.25L231.44,261a5.44,5.44,0,0,1,4.91,0L409.66,361a5.41,5.41,0,0,1,2.45,4.25v.58A5.45,5.45,0,0,1,409.64,370.09Z" style="opacity:0.45"></path><path d="M236.2,260.88c-1.87-1.08-3.82-.46-5.69.63L101.14,336.2c-1.86,1.08-1.87,2.83,0,3.92l171.52,99h0a6.73,6.73,0,0,0,6.75,0l129.4-74.68a2.26,2.26,0,0,0,0-3.92h0Z" style="fill:#025FCC"></path><path d="M236.2,260.88c-1.87-1.08-3.82-.46-5.69.63L101.14,336.2c-1.86,1.08-1.87,2.83,0,3.92l171.52,99h0a6.73,6.73,0,0,0,6.75,0l129.4-74.68a2.26,2.26,0,0,0,0-3.92h0Z" style="opacity:0.30000000000000004"></path><path d="M409.66,361l-.83-.48a2.27,2.27,0,0,1,0,3.92l-129.4,74.68a6.64,6.64,0,0,1-3.37.91H276v6.47a5,5,0,0,0,2.5-.6l131.17-75.81a5.44,5.44,0,0,0,2.46-4.25v-.57A5.38,5.38,0,0,0,409.66,361Z" style="fill:#025FCC"></path><path d="M409.66,361l-.83-.48a2.27,2.27,0,0,1,0,3.92l-129.4,74.68a6.64,6.64,0,0,1-3.37.91H276v6.47a5,5,0,0,0,2.5-.6l131.17-75.81a5.44,5.44,0,0,0,2.46-4.25v-.57A5.38,5.38,0,0,0,409.66,361Z" style="opacity:0.2"></path></g></g><path id="freepik--shadow--inject-5" d="M247.66,271c-1.92-1.11-3.93-.46-5.86.65l-122.27,70.6c-1.92,1.11-1.93,2.92,0,4l152.88,88.26h0a7,7,0,0,0,7,0L401.67,364a2.33,2.33,0,0,0,0-4l-2.24-1.3Z" style="opacity:0.25"></path><g id="freepik--Papet--inject-5"><path d="M276.9,433.56l121.83-70.34a2.31,2.31,0,0,0,1-1.81v-1.35a2.31,2.31,0,0,0-1-1.81L244.28,269.09a2.31,2.31,0,0,0-2.08,0L120.37,339.43a2.31,2.31,0,0,0-1,1.8v1.36a2.31,2.31,0,0,0,1,1.81l154.45,89.16A2.31,2.31,0,0,0,276.9,433.56Z" style="fill:#f5f5f5"></path><path d="M120.15,339.59a1.85,1.85,0,0,0-.28.28l-.12.16a2.73,2.73,0,0,0-.3.56,1.86,1.86,0,0,0-.1.39,2.11,2.11,0,0,0,0,.26v1.35a2.27,2.27,0,0,0,1,1.8l154.44,89.16a2,2,0,0,0,1,.25V430a2.28,2.28,0,0,1-1-.25L120.37,340.63C119.88,340.35,119.8,339.92,120.15,339.59Z" style="fill:#e0e0e0"></path><path d="M399,358.44c.31.32.22.74-.25,1L276.9,429.79a2.08,2.08,0,0,1-1,.25v3.76a2,2,0,0,0,1-.25l121.83-70.33a2.31,2.31,0,0,0,1-1.8v-1.36A2.27,2.27,0,0,0,399,358.44Z" style="fill:#f0f0f0"></path><path d="M281.7,290.7l-37.42-21.61a2.31,2.31,0,0,0-2.08,0L120.37,339.43a2.31,2.31,0,0,0-1,1.8v1.36a2.31,2.31,0,0,0,1,1.81l34.16,19.72Z" style="fill:#025FCC"></path><path d="M281.7,290.7l-37.42-21.61a2.31,2.31,0,0,0-2.08,0L120.37,339.43a2.31,2.31,0,0,0-1,1.8v1.36a2.31,2.31,0,0,0,1,1.81l34.16,19.72Z" style="fill:#fff;opacity:0.6000000000000001"></path><path d="M157.79,362.24l-37.42-21.61c-.49-.28-.57-.71-.22-1a1.85,1.85,0,0,0-.28.28l-.12.16a2.73,2.73,0,0,0-.3.56,1.86,1.86,0,0,0-.1.39,2.11,2.11,0,0,0,0,.26v1.35a2.27,2.27,0,0,0,1,1.8L157.79,366Z" style="fill:#025FCC"></path></g><path d="M157.13,328.58a30,30,0,0,1-15.76,3c1.07,2.94-1.29,6.59-5.12,9.1,6.72,4.45,13.35,7.88,22.46,8.95a54.67,54.67,0,0,0,13.66-.15,11,11,0,0,0,.26-7.89C170.79,336.29,164.84,332.46,157.13,328.58Z" style="fill:#025FCC"></path><path d="M158.75,341.57a4.62,4.62,0,0,1,3.68.14,22.59,22.59,0,0,1,3.38,1.72c.58.36,1.5.21,1.4-.55a4.58,4.58,0,0,0-2.1-2.61c-1.69-1.23-2.7-1.49-3.62-2.28s-1.32-1.88-2.9-2.79a7.9,7.9,0,0,0-6.17-.86c-2,.74-1.62,1.63-2.49,2.14s-2.42.26-3.7,1.44-.11,2.64,1.48,3.56,3.37,1.1,4.84,1.67,1.81,1.12,3.94,2.09a12.83,12.83,0,0,0,4.53,1.22c1.31.05,1.57-.48.94-.81a19.84,19.84,0,0,1-3-1.95C158.11,342.91,157.84,342.09,158.75,341.57Z" style="fill:#fff"></path><g id="freepik--Clip--inject-5"><g id="freepik--clip--inject-5"><path d="M202.65,289.73h0a2.11,2.11,0,0,0,.89-2,6.69,6.69,0,0,0-3-5.22,2.12,2.12,0,0,0-2.14-.2h0l-48.1,27.77,4.26,7.38Z" style="fill:#37474f"></path><path d="M152.41,313.79l50.24-29a6.18,6.18,0,0,1,.89,3,2.91,2.91,0,0,1,0,.32l-49.45,28.55Z" style="fill:#455a64"></path><path d="M155.44,315.54c0,1.92-1.35,2.7-3,1.74a6.67,6.67,0,0,1-3-5.22c0-1.92,1.35-2.7,3-1.74A6.67,6.67,0,0,1,155.44,315.54Z" style="fill:#263238"></path></g><g id="freepik--clip--inject-5"><path d="M158.66,331.35a5.39,5.39,0,0,1-2.66-.67l-12.79-7.39a2.4,2.4,0,0,1-1.37-2,2,2,0,0,1,1.07-1.67L152,314.4a.77.77,0,0,1,.76,1.33L143.67,321c-.19.11-.31.24-.31.35s.19.42.61.66l12.79,7.39a3.77,3.77,0,0,0,3.28.17l24.62-14.22a14.44,14.44,0,0,0,4.73-4.47,13.88,13.88,0,0,1,4.29-4.18,6.42,6.42,0,0,1,3.48-1,14.65,14.65,0,0,0,7.8-2.08l22.35-12.9c.2-.12.32-.25.32-.36s-.19-.42-.61-.66l-12.8-7.39a3.81,3.81,0,0,0-3.28-.17l-8,4.61a7.87,7.87,0,0,0-.79-1.31l8-4.62a5.3,5.3,0,0,1,4.8.17l12.8,7.39a2.38,2.38,0,0,1,1.37,2,2,2,0,0,1-1.08,1.68l-22.35,12.91a16.13,16.13,0,0,1-8.62,2.28,5,5,0,0,0-2.65.78,12.25,12.25,0,0,0-3.8,3.72,16.07,16.07,0,0,1-5.22,4.93L160.8,330.85A4.29,4.29,0,0,1,158.66,331.35Z" style="opacity:0.2"></path><path d="M158.66,330a5.39,5.39,0,0,1-2.66-.67l-12.79-7.39a2.4,2.4,0,0,1-1.37-2,2,2,0,0,1,1.07-1.67L152,313a.77.77,0,0,1,.76,1.33l-9.07,5.23c-.19.11-.31.25-.31.35s.19.42.61.66L156.76,328a3.77,3.77,0,0,0,3.28.17L184.66,314a14.44,14.44,0,0,0,4.73-4.47,13.88,13.88,0,0,1,4.29-4.18,6.42,6.42,0,0,1,3.48-1,14.65,14.65,0,0,0,7.8-2.08l22.35-12.9c.2-.12.32-.25.32-.36s-.19-.42-.61-.66l-12.8-7.39a3.81,3.81,0,0,0-3.28-.17l-8,4.61a7.87,7.87,0,0,0-.79-1.31l8-4.62a5.3,5.3,0,0,1,4.8.17l12.8,7.39a2.38,2.38,0,0,1,1.37,2,2,2,0,0,1-1.08,1.69l-22.35,12.9a16.13,16.13,0,0,1-8.62,2.28,5,5,0,0,0-2.65.78,12.25,12.25,0,0,0-3.8,3.72,16.07,16.07,0,0,1-5.22,4.93L160.8,329.49A4.29,4.29,0,0,1,158.66,330Z" style="fill:#455a64"></path></g></g></g></g><g id="freepik--Plants--inject-5"><g id="freepik--plants--inject-5"><path d="M63.2,344.73l8.07-4.66s4.8-19.94,2.88-37.88c-2.69-25.22-19.29-34.71-25.6-32.54s-8.14,9.52,2.3,24.54C57,303.05,64.59,321.52,63.2,344.73Z" style="fill:#025FCC"></path><g style="opacity:0.65"><path d="M63.2,344.73l8.07-4.66s4.8-19.94,2.88-37.88c-2.69-25.22-19.29-34.71-25.6-32.54s-8.14,9.52,2.3,24.54C57,303.05,64.59,321.52,63.2,344.73Z" style="fill:#fff"></path></g><path d="M66.55,334.93h-.08a.56.56,0,0,1-.45-.65C70.44,311,62.32,284.86,52.25,274a.56.56,0,0,1,0-.79.56.56,0,0,1,.79,0c10.25,11.07,18.54,37.64,14.05,61.25A.54.54,0,0,1,66.55,334.93Z" style="fill:#fff"></path><path d="M42.92,356.44c-1.21.62-4.41-2.13-5.3-2.79a11.13,11.13,0,0,1-3.5-4.45,10.44,10.44,0,0,1-.62-6.34,23.56,23.56,0,0,1,1-3.3c.36-1.07.73-2.13,1.09-3.2a8.16,8.16,0,0,0,.64-3.25c-.17-2.23-2.06-3.89-3.78-5.32-1.91-1.58-3.87-3.64-3.73-6.31A9.49,9.49,0,0,1,31.33,316c1.36-1.55,3-2.9,4.19-4.55a6.6,6.6,0,0,0,1.55-4.09,6.92,6.92,0,0,0-.77-2.64,36.43,36.43,0,0,1-2.58-5.34c-.55-1.9-.35-4.22,1.18-5.49a6.16,6.16,0,0,1,4.66-.91,10.78,10.78,0,0,1,4.2,1.72c4.12,2.57,6.29,7.72,10.7,9.76a44.48,44.48,0,0,0,5.38,1.61,6.71,6.71,0,0,1,4.33,3.3c1.49,3.38-1.78,7.3-.8,10.86.87,3.15,3.83,4.49,5.38,7.37a6.56,6.56,0,0,1,.58,4.1,19.4,19.4,0,0,1-2,6.77,62,62,0,0,1-4.08,6.26S43.1,356.35,42.92,356.44Z" style="fill:#025FCC"></path><g style="opacity:0.30000000000000004"><path d="M42.92,356.44c-1.21.62-4.41-2.13-5.3-2.79a11.13,11.13,0,0,1-3.5-4.45,10.44,10.44,0,0,1-.62-6.34,23.56,23.56,0,0,1,1-3.3c.36-1.07.73-2.13,1.09-3.2a8.16,8.16,0,0,0,.64-3.25c-.17-2.23-2.06-3.89-3.78-5.32-1.91-1.58-3.87-3.64-3.73-6.31A9.49,9.49,0,0,1,31.33,316c1.36-1.55,3-2.9,4.19-4.55a6.6,6.6,0,0,0,1.55-4.09,6.92,6.92,0,0,0-.77-2.64,36.43,36.43,0,0,1-2.58-5.34c-.55-1.9-.35-4.22,1.18-5.49a6.16,6.16,0,0,1,4.66-.91,10.78,10.78,0,0,1,4.2,1.72c4.12,2.57,6.29,7.72,10.7,9.76a44.48,44.48,0,0,0,5.38,1.61,6.71,6.71,0,0,1,4.33,3.3c1.49,3.38-1.78,7.3-.8,10.86.87,3.15,3.83,4.49,5.38,7.37a6.56,6.56,0,0,1,.58,4.1,19.4,19.4,0,0,1-2,6.77,62,62,0,0,1-4.08,6.26S43.1,356.35,42.92,356.44Z" style="fill:#fff"></path></g><path d="M54.58,350.36h0a.54.54,0,0,1-.49-.58c1.93-20.92-6.78-44.57-13.62-51.66a.51.51,0,0,1,0-.74.53.53,0,0,1,.75,0c7,7.23,15.87,31.27,13.92,52.49A.54.54,0,0,1,54.58,350.36Z" style="fill:#fff"></path><path d="M52.51,324.56a.41.41,0,0,1-.16,0,71.35,71.35,0,0,0-15.09-3.22.54.54,0,0,1-.48-.58.52.52,0,0,1,.58-.48,72,72,0,0,1,15.35,3.29.52.52,0,0,1,.32.67A.52.52,0,0,1,52.51,324.56Z" style="fill:#fff"></path></g></g><g id="freepik--Floss--inject-5"><g id="freepik--floss--inject-5"><path d="M98.25,379.38a53,53,0,0,1,32.93,1,48,48,0,0,1,14.3,8.21c4.3,3.62,8,8.17,9.87,13.55a22.27,22.27,0,0,1-.19,15,25,25,0,0,1-9.69,11.77c-4.3,2.93-9.91,5.49-15.23,4.38a5.76,5.76,0,0,1-4.51-3.54,7.41,7.41,0,0,1,.46-5.54c2.19-4.6,7.91-6.64,12.59-7.43a35.72,35.72,0,0,1,16.69,1.55,32.89,32.89,0,0,1,14.29,8.59,26.7,26.7,0,0,1,4.59,6.82,66,66,0,0,1,2.76,7.86c1.52,4.8,3.57,9.37,7.88,12.27a22.09,22.09,0,0,0,12.29,3.56,20.43,20.43,0,0,0,12.07-3.66c4-2.91,6.84-8.34,5.13-13.27a9.47,9.47,0,0,0-4.33-5.09,7.22,7.22,0,0,0-6.56-.45c-2.18,1.14-1.8,3.79-.71,5.58a12.37,12.37,0,0,0,5.64,4.45c5.34,2.34,11.25,1.76,16.84.81,2.95-.5,5.89-1.09,8.87-1.39l1.79-.14,1.07-.06h.24c4.36,0,6.41,0,10.06.82l.68.16a26.84,26.84,0,0,1,3.49,1.14,22,22,0,0,1,6.77,4.22c.22.21.28-.26.12-.41a25.68,25.68,0,0,0-14.5-6.48,54.39,54.39,0,0,0-16.64.85c-6.09,1.07-12.65,2.26-18.54-.35-2.29-1-5-2.8-5.61-5.38a2.46,2.46,0,0,1,1.48-3.18,6,6,0,0,1,4.15.13,8.09,8.09,0,0,1,4.84,5.71,10.81,10.81,0,0,1-1.85,8.15c-2.68,4-7.32,6.12-12,6.68a21.28,21.28,0,0,1-13.28-2.65,15.43,15.43,0,0,1-5.14-5,31.44,31.44,0,0,1-3.26-7.77,54.38,54.38,0,0,0-2.87-7.93,27.86,27.86,0,0,0-4.74-6.8,34.33,34.33,0,0,0-14.28-8.63,37.66,37.66,0,0,0-16.84-1.88,26,26,0,0,0-8,2.33,14,14,0,0,0-5.67,4.59c-2,3.12-2.32,7.72.83,10.22a10.48,10.48,0,0,0,6.78,1.8,21.38,21.38,0,0,0,7.88-2,30,30,0,0,0,12.41-9.89,22.91,22.91,0,0,0,4.09-14.55c-.71-11.39-9.75-20.32-19.26-25.51a51.3,51.3,0,0,0-32.39-5.71,46.23,46.23,0,0,0-7.92,2c-.2.07-.09.51.11.45Z" style="fill:#e0e0e0"></path><path d="M42,389.63c-4.71,22.92,16,35.2,38.36,36.69a7.66,7.66,0,0,0,4.32-1l40.64-23.47a4.87,4.87,0,0,0,2.43-4.21V387.28A7.56,7.56,0,0,0,127,384C113.62,355.45,48.61,357.31,42,389.63Z" style="fill:#f0f0f0"></path><path d="M125.7,386.91,84.76,410.55c-10.14-.07-20.24-2.35-28-6.82-15.77-9.11-15.77-23.86,0-33s41.33-9.1,57.1,0C121.62,375.23,125.56,381.06,125.7,386.91Z" style="fill:#fafafa"></path><path d="M85.33,365c10.61,0,20.57,2.38,28,6.69,6.9,4,10.88,9.18,11.28,14.69L84.49,409.53c-10.29-.12-19.94-2.49-27.2-6.69S46,393.09,46,387.25s4-11.39,11.31-15.6c7.48-4.31,17.43-6.69,28-6.69m0-1c-10.33,0-20.66,2.27-28.55,6.82-15.77,9.11-15.77,23.86,0,33,7.74,4.47,17.84,6.75,28,6.82l40.94-23.64c-.14-5.85-4.08-11.68-11.82-16.15s-18.21-6.82-28.55-6.82Z" style="fill:#e0e0e0"></path><path d="M45.14,409.45a39.42,39.42,0,0,1,0-5l.13-1.25c.05-.41.14-.82.21-1.23a22.68,22.68,0,0,1,.56-2.44,32.27,32.27,0,0,1,4.35-9A43.86,43.86,0,0,1,57,383a86.56,86.56,0,0,1,7.82-6.24,59.57,59.57,0,0,1,17.87-8.89,60.76,60.76,0,0,1,9.8-2,32.23,32.23,0,0,1,10,.26,33.79,33.79,0,0,0-9.89.2,60.22,60.22,0,0,0-9.65,2.21,57.67,57.67,0,0,0-9.13,3.76,69.43,69.43,0,0,0-8.4,5.21,85.29,85.29,0,0,0-7.79,6.09A48.76,48.76,0,0,0,51,391a32.28,32.28,0,0,0-4.5,8.73,24.63,24.63,0,0,0-.65,2.38c-.09.4-.2.8-.27,1.21l-.17,1.22A45.52,45.52,0,0,0,45.14,409.45Z" style="fill:#e0e0e0"></path><path d="M82.73,414.52v9.68a1.3,1.3,0,0,0,1.94,1.12l40.63-23.46a4.87,4.87,0,0,0,2.43-4.21V387.33a.92.92,0,0,0-1.38-.79L85.16,410.32A4.86,4.86,0,0,0,82.73,414.52Z" style="fill:#e0e0e0"></path><ellipse cx="85.33" cy="386.18" rx="17.12" ry="9.89" style="fill:#025FCC"></ellipse><ellipse cx="85.33" cy="386.18" rx="17.12" ry="9.89" style="fill:#fff;opacity:0.6000000000000001"></ellipse><path d="M71.63,392.09a15.72,15.72,0,0,0,1.59,1.08,21.16,21.16,0,0,0,5.91,2.22l19.68-3.14a8.25,8.25,0,0,0,3.54-5.06Z" style="fill:#fff;opacity:0.6000000000000001"></path><path d="M68.42,387.69a6.74,6.74,0,0,0,.84,1.87l32.88-5.23a6.79,6.79,0,0,0-.94-1.86Z" style="fill:#fff;opacity:0.6000000000000001"></path></g></g><g id="freepik--Tool--inject-5"><g id="freepik--tool--inject-5"><path d="M387.51,425h0a1.69,1.69,0,0,1-1.71-.16,5.33,5.33,0,0,1-2.43-4.18,1.7,1.7,0,0,1,.71-1.57h0l68.63-41.21h0a2.31,2.31,0,0,1,2.48.17,7.45,7.45,0,0,1,3.39,5.85,2.28,2.28,0,0,1-1.08,2.23h0Z" style="fill:#455a64"></path><path d="M383.37,420.64c0-1.55,1.08-2.17,2.42-1.4a5.33,5.33,0,0,1,2.42,4.18c0,1.54-1.07,2.17-2.41,1.4A5.33,5.33,0,0,1,383.37,420.64Z" style="fill:#37474f"></path><path d="M363.41,436.73a3.24,3.24,0,0,1-1.47-2.53,1,1,0,0,1,.43-.95h0l22.39-13h0a1.05,1.05,0,0,1,1,.1,3.25,3.25,0,0,1,1.47,2.53,1.06,1.06,0,0,1-.43.95l-22.39,13h0A1,1,0,0,1,363.41,436.73Z" style="fill:#025FCC"></path><path d="M363.41,436.73a3.24,3.24,0,0,1-1.47-2.53,1,1,0,0,1,.43-.95h0l22.39-13h0a1.05,1.05,0,0,1,1,.1,3.25,3.25,0,0,1,1.47,2.53,1.06,1.06,0,0,1-.43.95l-22.39,13h0A1,1,0,0,1,363.41,436.73Z" style="opacity:0.2"></path><path d="M366.22,431.91l-.68-.5-3.16,1.83a18.2,18.2,0,0,1,3.51,2.74l2.89-1.67c-.08-.09-.15-.18-.24-.27A17.78,17.78,0,0,0,366.22,431.91Z" style="opacity:0.2"></path><path d="M386.92,420.22,456.43,379a5.94,5.94,0,0,0-1.24-1,2.31,2.31,0,0,0-2.48-.17h0l-68.63,41.21a1.69,1.69,0,0,1,1.71.16A4.35,4.35,0,0,1,386.92,420.22Z" style="opacity:0.15"></path><path d="M368.74,441.21a1.89,1.89,0,0,0,0-.24,2.81,2.81,0,0,0,0-.29,5.35,5.35,0,0,0-.07-.7c0-.08,0-.17,0-.26a8.26,8.26,0,0,0-.24-1c0-.09-.05-.18-.08-.26-.09-.24-.18-.47-.28-.7,0-.08-.07-.16-.12-.24l-.1-.22-.17-.31c-.06-.1-.11-.2-.18-.3l-.19-.3A11,11,0,0,0,366.1,435a14,14,0,0,0-1.82-1.66,18.37,18.37,0,0,0-2.3-1.53c-9-5.12-23.44-5.12-32.31,0l-.65.39a17.73,17.73,0,0,0-2.25,1.66c-.2.18-.4.36-.58.54a11.54,11.54,0,0,0-1.29,1.46l-.2.27-.25.38c-.11.17-.22.35-.31.52s-.21.39-.3.58l-.12.26c-.05.12-.1.24-.14.36s-.07.18-.1.26a8.05,8.05,0,0,0-.41,1.91c0,.07,0,.14,0,.21s0,.3,0,.45c0,.55,0,3.07,0,3.53,0,3.39,2.23,6.79,6.73,9.38,8.92,5.15,23.39,5.15,32.31,0,4.51-2.6,6.73-6,6.66-9.41C368.74,444.14,368.75,442,368.74,441.21ZM331,434a30.17,30.17,0,0,1,14.83-3.5,30.65,30.65,0,0,1,14.93,3.5c3.52,2,5.46,4.52,5.47,7.09s-1.91,5-5.39,7a33.17,33.17,0,0,1-29.74,0c-3.51-2-5.44-4.55-5.44-7.12S327.51,436,331,434Z" style="fill:#025FCC"></path><path d="M368.74,441.21a1.89,1.89,0,0,0,0-.24,2.81,2.81,0,0,0,0-.29,5.35,5.35,0,0,0-.07-.7c0-.08,0-.17,0-.26a8.26,8.26,0,0,0-.24-1c0-.09-.05-.18-.08-.26-.09-.24-.18-.47-.28-.7,0-.08-.07-.16-.12-.24l-.1-.22-.17-.31c-.06-.1-.11-.2-.18-.3l-.19-.3A11,11,0,0,0,366.1,435a14,14,0,0,0-1.82-1.66,18.37,18.37,0,0,0-2.3-1.53c-9-5.12-23.44-5.12-32.31,0l-.65.39a17.73,17.73,0,0,0-2.25,1.66c-.2.18-.4.36-.58.54a11.54,11.54,0,0,0-1.29,1.46l-.2.27-.25.38c-.11.17-.22.35-.31.52s-.21.39-.3.58l-.12.26c-.05.12-.1.24-.14.36s-.07.18-.1.26a8.05,8.05,0,0,0-.41,1.91c0,.07,0,.14,0,.21s0,.3,0,.45c0,.55,0,3.07,0,3.53,0,3.39,2.23,6.79,6.73,9.38,8.92,5.15,23.39,5.15,32.31,0,4.51-2.6,6.73-6,6.66-9.41C368.74,444.14,368.75,442,368.74,441.21ZM331,434a30.17,30.17,0,0,1,14.83-3.5,30.65,30.65,0,0,1,14.93,3.5c3.52,2,5.46,4.52,5.47,7.09s-1.91,5-5.39,7a33.17,33.17,0,0,1-29.74,0c-3.51-2-5.44-4.55-5.44-7.12S327.51,436,331,434Z" style="fill:#fff;opacity:0.25"></path><path d="M368.74,441.21h-2.56c0,2.54-1.91,4.94-5.39,6.94a29.84,29.84,0,0,1-14.37,3.52v6.13a32.79,32.79,0,0,0,15.66-3.86c4.51-2.6,6.73-6,6.66-9.41C368.74,444.14,368.75,442,368.74,441.21Z" style="fill:#025FCC"></path><path d="M368.74,441a2.81,2.81,0,0,0,0-.29,5.35,5.35,0,0,0-.07-.7c0-.08,0-.17,0-.26a8.26,8.26,0,0,0-.24-1c0-.09-.05-.18-.08-.26-.09-.24-.18-.47-.28-.7,0-.08-.07-.16-.12-.24l-.1-.22-.17-.31c-.06-.1-.11-.2-.18-.3l-.19-.3A11,11,0,0,0,366.1,435a14,14,0,0,0-1.82-1.66,18.37,18.37,0,0,0-2.3-1.53c-9-5.12-23.44-5.12-32.31,0l-.65.39a17.73,17.73,0,0,0-2.25,1.66c-.2.18-.4.36-.58.54a11.54,11.54,0,0,0-1.29,1.46l-.2.27-.25.38c-.11.17-.22.35-.31.52s-.21.39-.3.58l-.12.26c-.05.12-.1.24-.14.36s-.07.18-.1.26a8.05,8.05,0,0,0-.41,1.91c0,.07,0,.14,0,.21s0,.3,0,.45c0,3.38,2.24,6.77,6.73,9.35,8.92,5.15,23.39,5.15,32.31,0,4.4-2.54,6.62-5.85,6.66-9.17A1.89,1.89,0,0,0,368.74,441Zm-7.95,7.18a33.17,33.17,0,0,1-29.74,0c-3.51-2-5.44-4.55-5.44-7.12s1.9-5,5.34-7a30.17,30.17,0,0,1,14.83-3.5,30.65,30.65,0,0,1,14.93,3.5c3.52,2,5.46,4.52,5.47,7.09S364.27,446.15,360.79,448.15Z" style="fill:#025FCC"></path><path d="M368.74,441a2.81,2.81,0,0,0,0-.29,5.35,5.35,0,0,0-.07-.7c0-.08,0-.17,0-.26a8.26,8.26,0,0,0-.24-1c0-.09-.05-.18-.08-.26-.09-.24-.18-.47-.28-.7,0-.08-.07-.16-.12-.24l-.1-.22-.17-.31c-.06-.1-.11-.2-.18-.3l-.19-.3A11,11,0,0,0,366.1,435a14,14,0,0,0-1.82-1.66,18.37,18.37,0,0,0-2.3-1.53c-9-5.12-23.44-5.12-32.31,0l-.65.39a17.73,17.73,0,0,0-2.25,1.66c-.2.18-.4.36-.58.54a11.54,11.54,0,0,0-1.29,1.46l-.2.27-.25.38c-.11.17-.22.35-.31.52s-.21.39-.3.58l-.12.26c-.05.12-.1.24-.14.36s-.07.18-.1.26a8.05,8.05,0,0,0-.41,1.91c0,.07,0,.14,0,.21s0,.3,0,.45c0,3.38,2.24,6.77,6.73,9.35,8.92,5.15,23.39,5.15,32.31,0,4.4-2.54,6.62-5.85,6.66-9.17A1.89,1.89,0,0,0,368.74,441Zm-7.95,7.18a33.17,33.17,0,0,1-29.74,0c-3.51-2-5.44-4.55-5.44-7.12s1.9-5,5.34-7a30.17,30.17,0,0,1,14.83-3.5,30.65,30.65,0,0,1,14.93,3.5c3.52,2,5.46,4.52,5.47,7.09S364.27,446.15,360.79,448.15Z" style="fill:#fff;opacity:0.45"></path><path d="M366.18,441.1a5.19,5.19,0,0,1-.17,1.29c-.53-2.11-2.37-4.14-5.3-5.81a30.65,30.65,0,0,0-14.93-3.5,30.17,30.17,0,0,0-14.83,3.5c-2.86,1.65-4.65,3.64-5.17,5.73a5.12,5.12,0,0,1-.17-1.28c0-2.55,1.9-5,5.34-7a30.17,30.17,0,0,1,14.83-3.5,30.65,30.65,0,0,1,14.93,3.5C364.23,436,366.17,438.53,366.18,441.1Z" style="fill:#025FCC"></path><path d="M366.18,441.1a5.19,5.19,0,0,1-.17,1.29c-.53-2.11-2.37-4.14-5.3-5.81a30.65,30.65,0,0,0-14.93-3.5,30.17,30.17,0,0,0-14.83,3.5c-2.86,1.65-4.65,3.64-5.17,5.73a5.12,5.12,0,0,1-.17-1.28c0-2.55,1.9-5,5.34-7a30.17,30.17,0,0,1,14.83-3.5,30.65,30.65,0,0,1,14.93,3.5C364.23,436,366.17,438.53,366.18,441.1Z" style="fill:#fff;opacity:0.25"></path><path d="M366.14,441.77c-.31,2.3-2.17,4.56-5.35,6.38a33.17,33.17,0,0,1-29.74,0c-3.21-1.85-5.1-4.13-5.4-6.47.3-2.32,2.15-4.56,5.3-6.37a30.17,30.17,0,0,1,14.83-3.5,30.65,30.65,0,0,1,14.93,3.5C363.94,437.15,365.84,439.42,366.14,441.77Z" style="fill:#fff;opacity:0.55"></path></g></g><g id="freepik--tooth--inject-5"><g id="freepik--tooth--inject-5"><ellipse id="freepik--shadow--inject-5" cx="277.91" cy="356.82" rx="83.71" ry="48.33" style="opacity:0.05"></ellipse><g id="freepik--tooth--inject-5"><path d="M353.68,366.17c-8.61,0-12.57-16.57-22.89-34.45-3.9-6.75-10.16-13.71-15.08-13.67,0,0-3.39.4-3.93,1.83s-2.35,8.85-3.06,22.23c-.49,9.09-1.49,16-4.54,16-4.74,0-6.12-5.77-11.5-20.84-7.23-20.22-19.92-28.62-35.39-28.62s-22.64,8.15-29.46,17.68a180.68,180.68,0,0,0-12.35,20.06C209.74,357.48,205.8,365,201.2,365c0,0-6.19-30.84,2.42-54.78s37.93-33,68.07-33S353.68,293.54,353.68,366.17Z" style="fill:#e0e0e0"></path><path d="M353.68,366.17c-8.61,0-12.57-16.57-22.89-34.45-3.9-6.75-10.16-13.71-15.08-13.67,0,0-3.39.4-3.93,1.83s-2.35,8.85-3.06,22.23c-.49,9.09-1.49,16-4.54,16-4.74,0-6.12-5.77-11.5-20.84-7.23-20.22-19.92-28.62-35.39-28.62s-22.64,8.15-29.46,17.68a180.68,180.68,0,0,0-12.35,20.06C209.74,357.48,205.8,365,201.2,365c0,0-6.19-30.84,2.42-54.78s37.93-33,68.07-33S353.68,293.54,353.68,366.17Z" style="opacity:0.2"></path><path d="M277.42,152.66c20.95,0,26.83,7.57,38.17,17.78s18.51,9.82,28.34,11.71,21.92,12.92,18.89,31.4S356,240,354.51,256.61s.63,25.95,6,38.48,5.71,35.66,0,57.05-9.38,13.57-11.27,7.57-6.81-24.76-17-35.22-18.51-10.27-28.72,5.89S288,360.43,285,376.34s-4.16,31.13-9.07,33-25.7-17.42-31.74-38.59S234,322.14,232.45,316.39s-5.29-5.42-10.58,4.42-13.23,28-16.25,37.63-6.8,8.73-10.2-3.29-7.56-34.06,0-54.6,8.69-31.24,6.8-40.24-7.18-19.23-9.45-35.09,1.14-30.22,13.23-37,25.67-7,34.62-14.91C250.42,164.6,256.47,152.66,277.42,152.66Z" style="fill:#f0f0f0"></path><path d="M214.32,317.12c2.45-5.64,5-11.37,5.55-17.48.8-8.43-2.23-16.81-6.47-24.13-3.41-5.9-7.6-11.29-11.56-16.85-2.14-8.61-6.94-18.54-9.07-33.44-1.49-10.44-.5-20.22,3.78-27.63a28.08,28.08,0,0,1,9.83-7.27c7-3,14-2.93,21.32-1.65a37.61,37.61,0,0,0,7.32.79,27.19,27.19,0,0,0,8.34-1.65,28.45,28.45,0,0,0,7.89-4.23c4.05-3.17,5.42-7.77,8.22-11.83a23.2,23.2,0,0,1,32.94-5.45c5,3.72,8.44,9.4,13.89,12.42,4.15,2.29,9,2.8,13.51,4.35s9,4.8,9.57,9.51c.67,5.49-5.47,7.09-9.44,8.57-8.48,3.17-15.95,10.52-16.79,19.54a30.35,30.35,0,0,0-50.2-.82,43.66,43.66,0,0,0-6.2,14.46,76.5,76.5,0,0,0,1.61,42.85c2.12,6.34,5.08,12.4,6.86,18.85,5.41,19.6-.59,40.37-.35,60.7a98.83,98.83,0,0,0,6.73,34.74c2.35,6,5.43,12,9.81,16.62-8-4.58-22.38-20.35-27.24-37.37-6-21.17-10.21-48.58-11.72-54.33s-5.29-5.42-10.58,4.42-13.23,28-16.25,37.63c-1,3.06-2,5.05-3.07,6-1.58-8.68.59-18.24,3.56-26.8C208.52,330.65,211.38,323.86,214.32,317.12Z" style="fill:#e0e0e0"></path><path d="M340.55,181.56c1.1.18,2.22.37,3.38.59,9.82,1.89,21.92,12.92,18.89,31.4S356,240,354.51,256.61s.63,25.95,6,38.48,5.71,35.66,0,57.05a58.06,58.06,0,0,1-3.65,10.57c3.06-17.78,6.26-35.78,1.33-52.92-2.84-9.89-8.3-19-10.33-29-2.49-12.32.32-25,3.3-37.23s7-27.47,5.25-39.91C355,193.78,350,185.92,340.55,181.56Z" style="fill:#fafafa"></path><path d="M277,408.6h0c2.89-6.4,2.34-34.4,7.33-50.28,8.21-26.1,16.88-34.31,29.24-39.23h0c-3.25,2-6.57,5.66-10.12,11.28-10.2,16.15-15.49,30.05-18.51,46C282.2,391,281,405,277,408.6Z" style="fill:#fafafa"></path><path d="M351.72,214.29a27.23,27.23,0,0,1-.85,10.91c-.75,2.83-4,6.78-6,2.17a12.07,12.07,0,0,1-.62-3.84,15.86,15.86,0,0,0-3.31-8.71,11,11,0,0,0-8.16-4.14c-3.22,0-10.26,4.25-11.85.41-1.39-3.35,3.38-6.69,5.75-8,9.7-5.16,21-3.07,24.46,8.45A19.42,19.42,0,0,1,351.72,214.29Z" style="fill:#fafafa"></path><path d="M301.65,237c.21,5-.26,17.3-5.8,19.79-7.86,3.54-3.07-9.41-2.85-12.61.35-5.18-.84-10.83-4.72-14.28-2.86-2.54-6.75-3.53-10.07-5.45-4.82-2.77.24-8.91,4.26-9.28C294.11,214.14,301.24,227.17,301.65,237Z" style="fill:#fafafa"></path><path d="M262.35,383.69a203,203,0,0,1,1.5-50.28c1-6.28,2.57-13.68-.33-19.69-.18,10.7-4.5,20.44-5.5,31.06a97,97,0,0,0,.18,19.87A93.27,93.27,0,0,0,262.35,383.69Z" style="fill:#fafafa"></path><path d="M302.41,191.45a40.3,40.3,0,0,1-12.93,4.35,37.89,37.89,0,0,1-14.08-1.34c-5.29-1.35-10.45-3.19-15.75-4.5a93.82,93.82,0,0,0-16.5-2.5,72.78,72.78,0,0,0-9.57-.12,64.88,64.88,0,0,0-9.29,1.49c-.16,0-.17.45,0,.46,11.76.25,23.5,1.21,34.88,4.36,10.44,2.89,20.77,7.79,31.87,5.88,4.8-.83,8.65-3.15,12.52-5.95,3.64-2.64,7.37-5.36,11.75-6.62a18.71,18.71,0,0,0-9,2.49Z" style="fill:#e0e0e0"></path><path d="M302.41,191.45a40.3,40.3,0,0,1-12.93,4.35,37.89,37.89,0,0,1-14.08-1.34c-5.29-1.35-10.45-3.19-15.75-4.5a93.82,93.82,0,0,0-16.5-2.5,72.78,72.78,0,0,0-9.57-.12,64.88,64.88,0,0,0-9.29,1.49c-.16,0-.17.45,0,.46,11.76.25,23.5,1.21,34.88,4.36,10.44,2.89,20.77,7.79,31.87,5.88,4.8-.83,8.65-3.15,12.52-5.95,3.64-2.64,7.37-5.36,11.75-6.62a18.71,18.71,0,0,0-9,2.49Z" style="opacity:0.2"></path><path d="M275.16,410a7.49,7.49,0,0,1-3.19-1c-8.49-4.29-23.37-20.86-28.3-38.13-4.16-14.55-7.4-31.93-9.55-43.43-1-5.1-1.7-9.13-2.17-10.91-.38-1.46-1.11-3.23-2.38-3.38-.84-.09-3.24.48-7.24,7.92-5.57,10.37-13.3,28.26-16.22,37.54-1.45,4.65-3.07,6.91-4.94,6.91h0c-2.25,0-4.28-3.38-6.22-10.22-3.28-11.59-7.64-34.13,0-54.92,8-21.77,8.51-31.72,6.78-40a100.42,100.42,0,0,0-3.24-10.92,129.21,129.21,0,0,1-6.21-24.2c-2.56-17.88,2.23-31.22,13.49-37.55,5.31-3,10.87-4.69,16.24-6.35,6.85-2.1,13.32-4.09,18.28-8.49,2-1.79,3.91-3.75,5.75-5.65,7.16-7.43,14.57-15.11,31.4-15.11,19,0,25.84,6.26,35.24,14.92,1,1,2.13,2,3.27,3,9.45,8.51,16,9.58,23.64,10.82,1.44.23,2.91.47,4.46.77,9.88,1.9,22.4,13.08,19.3,32-1.3,8-2.72,13.87-4.08,19.58A148.45,148.45,0,0,0,355,256.65c-1.54,17,.8,26.18,6,38.23,5.56,13,5.57,36.61,0,57.4-3.43,12.86-5.92,14.4-7.49,14.43h-.05c-2.27,0-3.72-3.66-4.73-6.86-.18-.57-.39-1.26-.63-2.05-2.3-7.66-7.11-23.59-16.25-33-5-5.17-9.3-7.39-13.36-7-4.68.49-9.43,4.67-14.55,12.76-9.77,15.47-15.28,29.16-18.44,45.79-.69,3.64-1.28,7.21-1.85,10.65-1.94,11.84-3.48,21.18-7.55,22.7A2.45,2.45,0,0,1,275.16,410Zm-45.78-97.86.31,0c1.49.18,2.59,1.57,3.26,4.14.48,1.83,1.2,5.67,2.19,11,2.14,11.48,5.38,28.83,9.52,43.34,4.79,16.74,19.65,33.38,27.78,37.48,1.46.74,2.63,1,3.29.76,3.5-1.31,5.07-10.85,6.89-21.89.57-3.46,1.16-7,1.85-10.68,3.18-16.77,8.74-30.57,18.59-46.15,5.36-8.5,10.23-12.7,15.31-13.24,4.4-.46,8.92,1.85,14.21,7.27,9.32,9.55,14.17,25.64,16.51,33.38.23.78.44,1.47.62,2,1.59,5.06,2.91,6.13,3.74,6.13h0c1.08,0,3.36-1.83,6.52-13.67,5.49-20.59,5.5-43.91,0-56.72-5.22-12.21-7.59-21.56-6-38.73A149.55,149.55,0,0,1,358.24,233c1.36-5.69,2.77-11.57,4.07-19.5,3-18.23-9-29-18.48-30.81-1.53-.3-3-.54-4.43-.77-7.77-1.27-14.48-2.36-24.16-11.07q-1.71-1.55-3.28-3c-9.23-8.5-15.9-14.65-34.54-14.65-16.39,0-23.64,7.53-30.66,14.8-1.84,1.91-3.75,3.89-5.8,5.7-5.13,4.55-11.71,6.58-18.67,8.72-5.32,1.63-10.82,3.32-16,6.26-10.85,6.1-15.46,19.06-13,36.49a128.34,128.34,0,0,0,6.16,24,100.11,100.11,0,0,1,3.28,11c2.11,10.08.2,21.45-6.83,40.53-7.54,20.51-3.23,42.81,0,54.28,2.4,8.51,4.46,9.45,5.23,9.46h0c.76,0,2.27-.81,4-6.18,2.93-9.33,10.69-27.31,16.28-37.72C224.44,314.94,227.11,312.09,229.38,312.09Z" style="fill:#e0e0e0"></path></g></g></g><g id="freepik--Sparkles--inject-5"><g id="freepik--sparkles--inject-5"><path d="M230.76,59.31c-.35,7.16-.17,10.1-7.57,11.25,6.32.75,7.18,4.76,7.57,10.93.2-6.17,1.54-10.21,6.87-10.93C231.34,69.51,231.13,66.41,230.76,59.31Z" style="fill:#f5f5f5"></path><path d="M464.19,57.2c-.34,7.74-1.06,10.61-7.95,11.82,6.62.68,7.55,5,7.95,11.48.22-6.48,1.53-11.14,7.92-11.45C465.5,68,464.77,64.91,464.19,57.2Z" style="fill:#f5f5f5"></path><path d="M235.72,129.32c.07,6.19-.2,11.83-9.15,13.22,8,.72,8.69,6.16,9.15,13.62.25-7.46,1.41-13.27,8.78-13.62C236.88,141.27,236.67,138.2,235.72,129.32Z" style="fill:#f5f5f5"></path><path d="M372.85,166.79c0,5.12-.13,10.05-7.53,11.21,7.82-.11,7.23,4.82,7.61,11,.21-6.17,1-11.07,7.11-11.36C373.74,176.59,373.64,174.13,372.85,166.79Z" style="fill:#f5f5f5"></path><path d="M322.27,70.14c0,2.15,0,4.22-3.16,4.71,3.28,0,3,2,3.19,4.62.09-2.6.32-4.46,2.88-4.58C322.53,74.45,322.6,73.23,322.27,70.14Z" style="fill:#f5f5f5"></path><path d="M152.1,40c0,4.42-.19,8.67-6.58,9.61,6.74,0,6.2,4.21,6.48,9.53.23-5.32,1.45-9.3,6.7-9.51C153.28,48.7,152.72,46.36,152.1,40Z" style="fill:#f5f5f5"></path><path d="M32.43,67c0,4.42-.18,8.67-6.57,9.6,6.74,0,6.19,4.22,6.47,9.54.23-5.32,1.45-9.3,6.71-9.51C33.61,75.7,33.06,73.36,32.43,67Z" style="fill:#f5f5f5"></path><path d="M353.93,163.91c0,2.53-.51,5.08-4.17,5.65,3.87-.05,4,2.28,4.21,5.34.1-3.06.94-5.41,3.95-5.56C354.81,168.83,354.32,167.54,353.93,163.91Z" style="fill:#ebebeb"></path><path d="M247.84,55.1c0,2.21-.44,4.42-3.63,4.91,3.37,0,3.5,2,3.67,4.65.09-2.66.81-4.71,3.43-4.83C248.6,59.38,248.18,58.26,247.84,55.1Z" style="fill:#ebebeb"></path><path d="M450.44,50.91c0,2.9-.59,5.82-4.78,6.47,4.43-.06,4.6,2.61,4.82,6.11.12-3.5,1.08-6.19,4.53-6.36C451.44,56.54,450.88,55.07,450.44,50.91Z" style="fill:#ebebeb"></path><path d="M216.45,123.83c0,3.18-.64,6.38-5.24,7.09,4.86-.06,5.06,2.87,5.29,6.71.13-3.84,1.18-6.8,5-7C217.55,130,216.94,128.39,216.45,123.83Z" style="fill:#ebebeb"></path><path d="M307.8,58.43c0,4.14-.11,8.13-6.09,9.06,6.32-.08,5.84,3.9,6.15,8.89.17-5,.61-8.57,5.54-8.81C308.3,66.73,308.44,64.37,307.8,58.43Z" style="fill:#e0e0e0"></path><path d="M134.42,66.71c0-3.43-.08-6.49-5-7.26,5.23.07,4.83-3.46,5.09-7.59.14,4.13.77,7.66,4.84,7.86C135.11,60.42,135,61.8,134.42,66.71Z" style="fill:#e0e0e0"></path></g></g></svg>
